<?xml version="1.0" encoding="UTF-8"?> <svg xmlns="http://www.w3.org/2000/svg" width="1200" height="360" fill="none" viewBox="0 0 1200 360"><g fill="#EDEFF1"><path d="M-1.08 246.91a1.041 1.041 0 0 0 .75 1.76c.23 0 .45-.09.63-.24v-3.09c-.45.54-.91 1.07-1.39 1.57h.01ZM-1.78 8.35c-.35.45-.27 1.11.18 1.46a1.037 1.037 0 0 0 1.46-.18c.15-.19.29-.4.44-.6V5.42c-.67 1.02-1.37 2-2.09 2.92l.01.01ZM16.96 11.15C19.29 7.61 21.13 3.86 22.64 0H20.4c-1.41 3.47-3.1 6.83-5.19 10C11.27 15.99 6.15 21.11.3 26.26v2.76c6.53-5.65 12.27-11.21 16.65-17.87h.01ZM9.49 133c14.18-4.87 28.58 4.97 41.31 13.66l.77.53c10.1 6.89 20.93 12.98 32.2 18.1 12.67 5.76 36.25 13.59 51.81 1.29 7.13-5.64 10.24-13.93 13.25-21.95 2.11-5.63 4.3-11.46 7.86-16.31 2.6-3.54 5.83-6.7 8.95-9.76 5.04-4.94 10.25-10.05 12.84-16.82 2.48-6.49 2.52-13.44 2.55-20.16 0-1.67.02-3.35.07-5.02.19-6.86 3.34-21.96 8.67-26.37 1.1-.92 2.18-1.26 3.34-1.09 5.17.84 5.2 6.75 4.79 17.13-.22 5.5-.46 11.74.37 18.19.84 6.49 2.49 11.4 4.09 16.15 2.95 8.77 5.5 16.33 2.34 31.45-1.35 6.46-2.74 13.15-1.91 19.92.57 4.55 2.31 8.88 3.99 13.06 1.43 3.55 2.91 7.22 3.61 10.93 1.68 8.87-.87 17.53-3.57 26.69-2.15 7.3-4.38 14.85-4.24 22.49.16 9.32 3.8 18.15 7.32 26.7 2.89 7 5.87 14.24 6.88 21.65.58 4.24.52 8.65.46 12.91-.08 5.75-.16 11.69 1.29 17.43 5.85 23.21 33.06 35.02 59.1 43.48.29 4.3-.26 8.61-1.51 12.74h2.19c1.26-4.41 1.75-9.02 1.35-13.61l-.06-.69-.66-.21c-25.7-8.29-52.73-19.79-58.39-42.21-1.38-5.48-1.3-11.28-1.23-16.89.06-4.34.12-8.83-.47-13.22-1.05-7.67-4.08-15.04-7.02-22.16-3.45-8.37-7.01-17.01-7.17-25.94-.13-7.32 2.05-14.72 4.16-21.86 2.65-9 5.39-18.31 3.63-27.67-.75-3.92-2.26-7.68-3.73-11.33-1.63-4.06-3.32-8.25-3.86-12.53-.79-6.43.57-12.94 1.88-19.24 3.28-15.67.52-23.87-2.41-32.54-1.56-4.66-3.19-9.47-4-15.75-.81-6.27-.57-12.42-.36-17.84.4-10.11.71-18.09-6.54-19.27-1.75-.28-3.43.24-5 1.54-6.31 5.21-9.26 21.86-9.43 27.93-.04 1.68-.06 3.37-.07 5.06-.04 6.53-.07 13.29-2.42 19.42-2.42 6.35-7.24 11.07-12.35 16.08-3.18 3.11-6.47 6.34-9.17 10.02-3.74 5.08-5.97 11.04-8.14 16.81-3.04 8.11-5.92 15.77-12.6 21.04-14.69 11.62-37.41 4.01-49.65-1.55a213.406 213.406 0 0 1-31.89-17.92l-.77-.52c-12.49-8.52-28.03-19.12-43.16-13.91-3.43 1.18-6.23 2.95-8.51 5.1v3.04c2.31-2.68 5.31-4.84 9.18-6.18l.04-.02ZM105.82 7.39c1.49.54 3.02.79 4.55.79 4.97 0 9.85-2.59 12.78-5.85.66-.74 1.25-1.52 1.78-2.32h-2.56c-.25.32-.5.63-.77.93-3.36 3.75-9.61 6.49-15.05 4.5-2.54-.93-4.75-2.87-6.26-5.43h-2.36c1.73 3.48 4.57 6.16 7.9 7.39l-.01-.01ZM272.04 62.48c.55 4.49 1.09 8.96 1.55 13.4 3.32 31.87 1.92 64.39.58 95.84-.42 9.93-.86 20.2-3.43 30-.28 1.06-.58 2.13-.88 3.21-1.52 5.36-3.1 10.91-1.72 16.43 4.08 16.39 28.78 18.42 39.21 18.53 37.04.4 59.66-4.61 91.18-14.61 12.13-3.85 22.63-4.88 38.51-6.45 7.91-.78 16.88-1.66 27.97-3.08 8.99-1.15 15.2.76 17.49 5.38 3.07 6.17-1.03 16.6-10.2 25.96-7.06 7.2-13.76 10.06-20.25 12.83-6.74 2.87-13.11 5.59-18.21 12.98-12.82 18.59-19.39 24.17-25.74 29.56-4.38 3.72-8.91 7.57-15.33 15.59-10.96 13.72-16.87 28.51-19.08 41.96h2.19c2.75-14.98 9.88-29.84 18.52-40.66 6.29-7.87 10.54-11.48 15.04-15.3 6.46-5.48 13.14-11.15 26.11-29.97 4.75-6.9 10.57-9.38 17.31-12.25 6.36-2.71 13.58-5.79 20.92-13.29 9.94-10.15 14.1-21.27 10.58-28.35-2.73-5.48-9.73-7.78-19.62-6.52-11.06 1.42-20.02 2.3-27.91 3.08-16.02 1.58-26.6 2.62-38.94 6.53-30.16 9.57-52.23 14.53-86.55 14.53-1.3 0-2.63 0-3.98-.02-9.94-.11-33.48-1.97-37.22-16.95-1.24-4.98.26-10.25 1.7-15.35.31-1.09.62-2.17.9-3.25 2.62-10.01 3.06-20.4 3.49-30.43 1.35-31.53 2.74-64.13-.59-96.15-.46-4.44-1.01-8.93-1.56-13.43-2.55-20.96-5.17-42.52.65-62.23h-2.17c-5.72 19.93-3.1 41.5-.55 62.48h.03ZM1129.43 322.08c-8.08-6.21-17.61 1.98-32.05 14.4-8.06 6.93-18.04 15.5-30.13 23.52h3.74c11.04-7.58 20.23-15.47 27.76-21.94 13.66-11.75 22.68-19.5 29.41-14.32 5.57 4.28-2.85 18.04-12.59 33.96-.47.76-.94 1.53-1.41 2.3h2.44c.25-.41.5-.81.74-1.22 10.69-17.48 19.14-31.28 12.08-36.7h.01Z"></path><path d="M85.06 32.02c11.02 7.68 26.27.22 30.68-2.25 11.84-6.63 21.28-16.09 26.58-26.63.52-1.03.99-2.09 1.43-3.14h-2.26c-.33.74-.67 1.48-1.04 2.2-5.11 10.18-14.25 19.32-25.73 25.75-8.53 4.78-20.49 7.91-28.47 2.36-7.91-5.51-7.89-16.56-7.18-24.39.18-2.02.4-3.98.64-5.92h-2.1c-.23 1.88-.44 3.78-.62 5.73-.75 8.35-.73 20.16 8.07 26.29ZM1176.4 337.4c-7.11 5.28-8.72 13.77-9.04 18.35-.1 1.42-.31 2.84-.6 4.25h4.25c.24-1.3.42-2.62.52-3.95.27-3.87 1.6-11.01 7.37-15.3 4.94-3.66 12.07-4.91 18.13-3.17 1.15.33 2.24.75 3.29 1.24v-4.52c-.7-.27-1.41-.52-2.14-.73-7.4-2.12-15.73-.65-21.77 3.83h-.01Z"></path><path d="M1193.95 348c-4.86-1.2-9.6 2.47-11.37 6.7l-2.23 5.3h2.26l1.89-4.49c1.25-2.99 4.27-5.65 7.54-5.65.47 0 .94.06 1.41.17 3.17.77 5.4 3.11 6.86 5.34v-3.38c-1.84-2.03-4-3.41-6.36-3.98V348ZM345.58 222.81h.12c1.39-.16 2.77-.33 4.16-.53.57-.08.97-.6.89-1.18-.08-.57-.53-.97-1.18-.89-1.37.19-2.74.36-4.11.52-.57.07-.98.58-.92 1.16.06.53.51.92 1.03.92h.01ZM462.68 280.77c-1.28.13-2.77.3-4.22.57-.57.11-.94.65-.84 1.22.1.5.53.85 1.03.85.06 0 .13 0 .19-.02 1.32-.25 2.67-.41 4.05-.55.57-.06.99-.57.93-1.14-.06-.57-.54-1.02-1.14-.93ZM489.58 191.6c.07 0 .15 0 .22-.02a56.6 56.6 0 0 0 4.11-1.08c.55-.17.87-.75.7-1.3-.16-.55-.75-.86-1.3-.7-1.32.39-2.64.75-3.96 1.04-.56.12-.92.68-.79 1.24.11.49.54.82 1.02.82ZM501.55 187.95c.11 0 .22-.02.33-.05 1.28-.42 2.54-.82 3.82-1.19l-.16-1.04.29 1c.55-.16.8-.72.64-1.27-.16-.55-.79-.84-1.36-.69-1.29.37-2.58.79-3.88 1.21-.55.18-.84.77-.66 1.32.14.44.55.72.99.72l-.01-.01ZM498.63 242.57a1.033 1.033 0 0 0 1.37-.53 69.62 69.62 0 0 1 1.76-3.7c.26-.51.07-1.14-.44-1.41a1.06 1.06 0 0 0-1.41.45c-.65 1.25-1.25 2.53-1.82 3.83-.23.53 0 1.14.53 1.38l.01-.02ZM504.69 231.66c.19.15.41.22.64.22.31 0 .62-.14.83-.41a64.7 64.7 0 0 1 2.61-3.18 1.043 1.043 0 0 0-1.58-1.36c-.93 1.08-1.83 2.16-2.68 3.27-.35.46-.26 1.11.19 1.46h-.01ZM474.53 278.27c-1.21.56-2.47 1.01-3.75 1.34-.55.14-.89.71-.75 1.27.12.47.55.78 1.01.78.09 0 .18-.01.26-.03 1.39-.36 2.77-.85 4.09-1.46.52-.24.75-.86.51-1.38-.24-.52-.87-.75-1.39-.51l.02-.01ZM489.01 265.65c.16.09.34.13.51.13.36 0 .72-.19.91-.53.7-1.24 1.34-2.51 1.93-3.79.24-.52.02-1.14-.51-1.38-.52-.24-1.14-.01-1.38.51-.57 1.22-1.19 2.44-1.86 3.64-.28.5-.11 1.14.4 1.42ZM441.33 194.43c.12 0 .24-.02.36-.06 1.3-.48 2.61-.95 3.91-1.41.54-.19.83-.79.63-1.33-.19-.54-.81-.83-1.33-.63-1.31.47-2.62.94-3.93 1.42-.54.2-.82.8-.62 1.34.15.42.55.69.98.69v-.02ZM453.13 190.25c.11 0 .23-.02.35-.06l.29-.1c1.19-.41 2.4-.81 3.62-1.16.55-.16.87-.74.71-1.29-.16-.55-.74-.88-1.29-.71-1.25.36-2.5.78-3.71 1.19l-.31.11c-.55.19-.83.79-.64 1.33.15.43.55.69.98.69ZM483.97 270.91c-.89 1.05-1.83 2.02-2.8 2.9-.43.39-.46 1.05-.07 1.47.2.23.48.34.77.34.25 0 .5-.09.7-.27 1.04-.94 2.04-1.98 2.99-3.09.37-.44.32-1.1-.12-1.47-.43-.37-1.09-.32-1.47.12ZM429.59 198.74c.12 0 .24-.02.36-.07l3.91-1.45c.54-.2.81-.8.61-1.34-.2-.54-.78-.82-1.34-.62l-3.91 1.45c-.54.2-.81.8-.61 1.34.15.42.55.68.98.68v.01ZM465.25 187.84c.45.03.9.08 1.36.16.78.13 1.58.34 2.47.63.11.04.22.05.33.05a1.049 1.049 0 0 0 .33-2.04c-.99-.32-1.89-.55-2.78-.7-.52-.09-1.04-.15-1.55-.18-.59-.05-1.08.39-1.11.97-.04.57.39 1.07.97 1.11h-.02ZM477.19 191.67c1.29.34 2.65.57 4.04.67h.07a1.041 1.041 0 0 0 .07-2.08c-1.25-.09-2.48-.29-3.63-.6l-.27-.08c-.55-.15-1 .21-1.14.77-.15.55.31 1.17.86 1.32ZM417.85 203.09c.12 0 .24-.02.36-.06l3.91-1.45c.54-.2.81-.8.62-1.34-.2-.54-.82-.82-1.34-.61l-3.91 1.45c-.54.2-.81.8-.62 1.34.15.42.55.68.98.68v-.01ZM413.09 316.48c-.4.26-.79.53-1.17.8-.78.55-1.54 1.11-2.28 1.7-.45.36-.53 1.01-.17 1.46a1.051 1.051 0 0 0 1.47.18c.71-.56 1.44-1.1 2.19-1.63.37-.26.74-.51 1.11-.76.48-.32.61-.97.29-1.45s-.97-.6-1.44-.29v-.01ZM423.97 310.13l-.45.24c-1.08.59-2.15 1.18-3.22 1.77-.5.28-.68.91-.4 1.42a1.046 1.046 0 0 0 1.42.41c1.06-.59 2.13-1.18 3.2-1.76l.45-.24c.51-.28.69-.91.42-1.42a1.04 1.04 0 0 0-1.42-.41v-.01ZM443.48 295.56c-.76 1.05-1.63 2.09-2.58 3.07-.4.42-.39 1.08.02 1.47.2.2.46.29.73.29.27 0 .55-.11.75-.32 1.02-1.06 1.96-2.17 2.77-3.31.33-.47.23-1.12-.24-1.45-.47-.34-1.12-.23-1.46.24l.01.01ZM434.64 303.82c-1.12.77-2.28 1.51-3.46 2.22a1.042 1.042 0 0 0 1.08 1.78c1.21-.74 2.4-1.5 3.56-2.29.47-.33.59-.98.27-1.45-.33-.47-.98-.59-1.45-.27v.01ZM397.38 334.67c-.51-.28-1.14-.1-1.42.4-.68 1.22-1.32 2.5-1.91 3.8-.24.53 0 1.14.52 1.38.14.06.28.09.43.09.4 0 .78-.23.95-.61.57-1.25 1.18-2.47 1.84-3.65.28-.5.1-1.14-.4-1.42l-.01.01ZM513.67 222.55c.27 0 .54-.11.75-.32l2.92-2.98c.4-.41.4-1.07-.02-1.47a1.04 1.04 0 0 0-1.47.02l-2.92 2.98c-.4.41-.4 1.07.02 1.47.2.2.47.3.73.3h-.01ZM403.41 324.75c-.97 1.05-1.89 2.13-2.76 3.24-.36.45-.28 1.11.18 1.46a1.037 1.037 0 0 0 1.46-.18c.84-1.07 1.72-2.11 2.65-3.11.39-.42.37-1.08-.06-1.47-.42-.39-1.08-.36-1.47.06ZM522.27 213.46c.29 0 .58-.12.79-.36.94-1.09 1.83-2.19 2.66-3.31.35-.46.25-1.11-.21-1.46-.46-.34-1.11-.24-1.46.21-.8 1.08-1.66 2.14-2.57 3.19-.37.44-.33 1.09.11 1.47.2.17.44.25.68.25v.01ZM513.78 185.48h.7c1.14 0 2.27.06 3.32.18h.12a1.044 1.044 0 0 0 .12-2.08 29.41 29.41 0 0 0-3.57-.21h-.75c-.58.02-1.03.5-1.02 1.08.02.57.49 1.02 1.07 1.02l.01.01ZM525.24 188.06c1.13.71 2.06 1.56 2.77 2.53a1.047 1.047 0 0 0 1.46.23c.46-.34.57-.99.23-1.46-.87-1.18-1.99-2.22-3.34-3.07a1.04 1.04 0 0 0-1.44.33c-.31.49-.16 1.13.33 1.44h-.01ZM529.11 197.77c-.21 1.25-.56 2.53-1.06 3.8-.21.54.06 1.14.59 1.35.13.05.25.07.38.07.42 0 .81-.25.97-.67.54-1.4.94-2.82 1.17-4.21.09-.57-.29-1.11-.86-1.2-.58-.11-1.11.29-1.2.86h.01ZM450.45 284.97c-1 .92-1.88 2.01-2.78 3.45-.31.49-.16 1.13.33 1.44a1.028 1.028 0 0 0 1.43-.33c.8-1.28 1.57-2.23 2.42-3.02a1.041 1.041 0 0 0-1.41-1.53l.01-.01ZM294.4 203.82c.03-.57-.41-1.07-.98-1.1-.59-.07-1.07.41-1.1.98-.03.51-.05 1.01-.05 1.51 0 1.04.07 1.98.21 2.87.08.52.53.88 1.03.88.05 0 .11 0 .16-.01.57-.09.96-.62.87-1.19-.12-.79-.18-1.62-.19-2.55 0-.46.02-.92.05-1.39ZM296.49 214.49c-.41.41-.41 1.07 0 1.48.98.99 2.16 1.9 3.48 2.71.17.1.35.15.54.15.35 0 .69-.18.89-.5.3-.49.15-1.13-.35-1.43-1.18-.72-2.22-1.53-3.08-2.4-.4-.4-1.06-.41-1.47 0l-.01-.01ZM298.85 118.03a44.69 44.69 0 0 1-.25 4.07c-.06.57.35 1.09.93 1.15h.11c.53 0 .98-.4 1.04-.93.14-1.38.23-2.81.26-4.25 0-.58-.45-1.05-1.03-1.06-.69-.03-1.05.45-1.06 1.02ZM297.9 105.73c.2 1.36.38 2.73.53 4.1.06.53.51.93 1.03.93h.11c.57-.06.99-.58.92-1.15-.15-1.39-.33-2.78-.54-4.17-.09-.57-.64-.97-1.18-.88-.57.08-.97.61-.88 1.18l.01-.01ZM297.51 134.66c.49-1.32.97-2.65 1.39-3.99a1.04 1.04 0 0 0-.68-1.31c-.55-.16-1.14.12-1.31.68-.42 1.31-.88 2.6-1.36 3.89-.2.54.07 1.14.61 1.34.12.05.24.07.37.07.42 0 .82-.26.98-.68ZM295.77 93.44l.73 4.1c.09.5.53.86 1.03.86.06 0 .12 0 .18-.02.57-.1.95-.64.84-1.21l-.73-4.11c-.11-.56-.63-.95-1.22-.83-.57.11-.94.65-.84 1.22l.01-.01ZM392.47 346.15a1.06 1.06 0 0 0-1.28.74c-.37 1.37-.68 2.77-.92 4.16-.1.57.28 1.11.85 1.21.06.01.12.02.18.02.5 0 .94-.36 1.03-.86.24-1.33.53-2.67.88-3.98.15-.56-.18-1.13-.73-1.28l-.01-.01ZM295.16 190.33c-.71-.04-1.08.39-1.12.96l-.09 1.06c-.09.99-.24 1.99-.41 2.99-.09.57.29 1.1.86 1.2.06.01.11.01.17.01.5 0 .94-.36 1.03-.88.17-1.05.32-2.09.42-3.12l.09-1.1c.05-.57-.38-1.08-.96-1.12h.01ZM292.54 48.64h.02c.57 0 1.04-.48 1.03-1.06-.02-1.39-.03-2.78-.04-4.16a1.04 1.04 0 1 0-2.08.01c0 1.39.02 2.79.04 4.18 0 .57.47 1.03 1.04 1.03h-.01ZM291.9 147.03c.1.03.2.04.3.04.45 0 .86-.29 1-.74.4-1.31.84-2.6 1.32-3.89a1.045 1.045 0 0 0-1.96-.73c-.49 1.33-.95 2.67-1.36 4.01-.17.55.15 1.13.7 1.3v.01ZM290.64 159.42h.04c.58-.02 1.02-.51 1-1.09-.03-.62-.05-1.25-.05-1.87 0-.73.02-1.45.07-2.18.04-.57-.4-1.07-.97-1.11-.68-.03-1.07.4-1.11.97-.05.77-.07 1.54-.07 2.31 0 .66.02 1.31.05 1.97.02.56.49 1 1.04 1ZM294.74 11.21c.07.01.13.02.19.02.5 0 .93-.35 1.03-.86.24-1.35.52-2.71.81-4.05.12-.56-.23-1.12-.79-1.24-.59-.11-1.12.23-1.24.79-.3 1.37-.57 2.75-.83 4.13-.1.57.27 1.11.84 1.21h-.01ZM293.2 23.63h.09c.53 0 .99-.41 1.04-.95.12-1.38.26-2.75.42-4.12.07-.57-.34-1.09-.91-1.16-.56-.04-1.09.34-1.16.91-.17 1.39-.31 2.78-.43 4.18-.05.57.38 1.08.95 1.13v.01ZM292.55 36.13h.05c.55 0 1.01-.44 1.04-.99v-.28c.04-1.3.08-2.6.14-3.89.02-.57-.42-1.06-1-1.09-.58-.09-1.06.42-1.09 1-.06 1.31-.1 2.62-.14 3.96l1.03.26-1.04-.05c-.02.57.42 1.06.99 1.09l.02-.01ZM293.1 179.1c.24 1.35.46 2.71.63 4.07.06.53.51.91 1.03.91h.13c.57-.07.98-.59.9-1.16-.18-1.39-.4-2.79-.64-4.18-.11-.57-.65-.95-1.21-.84-.57.1-.95.64-.84 1.21v-.01ZM357.95 220.96c.06 0 .13 0 .19-.02 1.37-.25 2.74-.52 4.11-.8.57-.12.93-.67.81-1.23-.12-.56-.68-.92-1.23-.81-1.36.28-2.72.54-4.08.79-.57.1-.94.65-.84 1.21.09.5.53.85 1.03.85l.01.01ZM333.1 223.75h.04c1.4-.05 2.8-.12 4.19-.2.57-.03 1.01-.53.98-1.11-.04-.55-.5-.98-1.04-.98h-.06c-1.38.09-2.75.15-4.14.2-.57.02-1.03.5-1.01 1.08.02.56.48 1.01 1.04 1.01ZM370.18 218.34c.08 0 .16-.01.24-.03 1.36-.33 2.71-.67 4.07-1.02.56-.15.89-.71.75-1.27-.15-.55-.73-.89-1.27-.75-1.34.35-2.69.69-4.03 1.01a1.043 1.043 0 0 0 .24 2.06ZM382.28 215.11c.1 0 .2-.01.29-.04 1.34-.39 2.68-.79 4.01-1.2a1.04 1.04 0 1 0-.61-1.99c-1.33.41-2.66.8-3.99 1.19-.55.16-.87.74-.71 1.29.13.46.55.75 1 .75h.01ZM394.23 211.4c.11 0 .22-.02.33-.05 1.32-.44 2.65-.88 3.97-1.32.55-.18.84-.78.66-1.32-.19-.54-.77-.83-1.32-.65-1.32.44-2.63.88-3.96 1.32-.55.18-.84.77-.66 1.32.14.44.55.72.99.72l-.01-.02ZM320.54 223.63c1.41.08 2.8.13 4.2.16h.02c.57 0 1.03-.45 1.04-1.02.01-.58-.44-1.05-1.02-1.07-1.37-.03-2.75-.09-4.14-.16-.71-.02-1.06.41-1.1.98-.03.58.41 1.07.99 1.1l.01.01ZM307.95 221.92c1.32.34 2.72.64 4.18.88.06.01.11.01.17.01.5 0 .94-.36 1.03-.87.09-.57-.29-1.11-.86-1.2-1.39-.23-2.74-.51-4-.84-.55-.15-1.12.19-1.27.75-.14.56.19 1.13.75 1.27ZM406.08 207.35c.11 0 .23-.02.35-.06l3.94-1.41c.54-.2.82-.79.63-1.33-.2-.54-.79-.81-1.34-.63l-3.92 1.4c-.55.19-.83.79-.64 1.33.15.43.55.69.98.69v.01ZM293.05 61.15c.57-.03 1.01-.53.98-1.1-.08-1.39-.15-2.77-.21-4.15-.02-.57-.48-1.02-1.09-1-.57.03-1.02.51-1 1.09.06 1.4.13 2.79.21 4.18.03.55.49.98 1.04.98H293.05ZM295.5 86.05s.1 0 .15-.01c.57-.08.97-.61.88-1.18-.2-1.37-.38-2.74-.56-4.12-.07-.57-.64-.98-1.17-.9-.57.08-.97.6-.9 1.17.18 1.39.37 2.77.57 4.15.07.52.52.89 1.03.89ZM293.98 73.63h.1c.57-.06.99-.57.94-1.14-.14-1.38-.27-2.76-.39-4.14-.05-.57-.53-.98-1.13-.95-.57.05-1 .56-.95 1.13.12 1.39.25 2.78.39 4.17.05.54.51.94 1.04.94v-.01ZM292.68 171.76c.57-.12.93-.67.81-1.23-.29-1.35-.56-2.71-.8-4.06-.1-.57-.68-.94-1.21-.84-.57.1-.94.64-.84 1.21.24 1.38.53 2.75.81 4.12.11.49.54.83 1.02.83.07 0 .14 0 .21-.02v-.01ZM494.2 254.28c.12.04.24.07.36.07.42 0 .82-.26.98-.68l1.44-3.92c.2-.54-.08-1.14-.62-1.34-.55-.21-1.14.08-1.34.62l-1.44 3.92c-.2.54.07 1.14.62 1.34v-.01ZM1038.81 354.94l-3.64 2.04c-.5.28-.68.92-.4 1.42.19.34.55.53.91.53.18 0 .35-.04.51-.13l3.65-2.05c.5-.28.68-.92.4-1.42a1.04 1.04 0 0 0-1.42-.4l-.01.01ZM1164.03 281.25c.25 0 .51-.09.71-.28 1.05-.98 2.06-1.96 3.02-2.96.4-.41.39-1.07-.02-1.47-.41-.4-1.07-.39-1.47.03-.94.97-1.91 1.93-2.94 2.88-.42.39-.45 1.05-.06 1.47.21.22.48.33.77.33h-.01ZM1171.69 271.7a1 1 0 0 0 .57.17c.34 0 .67-.17.87-.47.8-1.22 1.52-2.48 2.13-3.74.25-.52.04-1.14-.48-1.39-.5-.25-1.14-.04-1.39.48-.57 1.18-1.25 2.36-2 3.5-.32.48-.18 1.13.3 1.44v.01ZM1170.38 307.43c.17 0 .35-.04.51-.13 1.19-.67 2.42-1.26 3.63-1.75.53-.22.79-.82.57-1.36-.21-.54-.82-.79-1.36-.58-1.3.52-2.6 1.15-3.87 1.87-.5.28-.68.92-.4 1.42.19.34.55.53.91.53h.01ZM1160.59 315.16c.27 0 .53-.1.74-.31.02-.02.03-.03.04-.05a49.8 49.8 0 0 1 2.93-2.78c.43-.38.48-1.04.09-1.47-.38-.43-1.03-.47-1.47-.1-1.01.89-2.04 1.86-3.07 2.92a1.055 1.055 0 0 0 0 1.48c.2.2.47.31.74.31ZM1071.32 336.18l-3.6 2.11c-.5.29-.66.93-.37 1.43.2.33.54.52.9.52.18 0 .36-.05.53-.14l3.6-2.11a1.045 1.045 0 0 0-1.06-1.8v-.01ZM1082.1 329.85l-3.59 2.11a1.043 1.043 0 0 0 .53 1.94c.18 0 .36-.05.53-.14l3.59-2.11a1.045 1.045 0 0 0-1.06-1.8ZM1060.51 342.49l-3.6 2.09a1.046 1.046 0 0 0 .52 1.95c.18 0 .36-.04.52-.14l3.61-2.09c.5-.29.66-.93.37-1.43-.29-.5-.92-.67-1.43-.38h.01ZM1049.69 348.75l-3.62 2.07c-.5.29-.67.92-.39 1.42a1.03 1.03 0 0 0 1.42.39l3.62-2.08c.5-.29.67-.92.39-1.42-.29-.5-.93-.67-1.42-.38ZM1177.13 254.08c-.57 0-1.04.46-1.04 1.04 0 1.36-.11 2.71-.3 4-.09.57.31 1.1.88 1.19.05 0 .11.01.15.01.51 0 .95-.37 1.03-.89.21-1.4.32-2.85.33-4.31 0-.58-.46-1.05-1.04-1.05l-.01.01ZM1198.79 238.94c-.43-.37-1.08-.34-1.47.09-.38.43-.35 1.09.09 1.47.97.86 1.94 1.78 2.9 2.76v-2.92c-.51-.48-1.01-.95-1.52-1.4ZM1194.34 304.89c1.34.35 2.66.74 3.95 1.15a1.035 1.035 0 0 0 1.31-.68 1.04 1.04 0 0 0-.68-1.31c-1.33-.42-2.68-.82-4.07-1.18-.54-.14-1.12.19-1.27.75-.14.56.19 1.13.75 1.27h.01ZM1182.21 303.67h.09c1.36-.12 2.71-.13 4.03-.08.64.11 1.06-.42 1.09-.99.02-.57-.42-1.06-.99-1.09-1.41-.07-2.84-.05-4.31.08-.57.05-1 .56-.94 1.13.05.54.51.95 1.04.95h-.01ZM1187.26 233.97c1.16.43 2.38 1 3.6 1.71.17.09.34.14.52.14.36 0 .71-.19.9-.52.28-.5.11-1.14-.38-1.42a25.69 25.69 0 0 0-3.93-1.86c-.54-.19-1.14.08-1.34.62-.2.54.08 1.14.62 1.34l.01-.01ZM1175.98 235.73c.31 0 .62-.14.82-.4.41-.53.98-.96 1.73-1.33.4-.2.82-.37 1.24-.5.55-.18.85-.76.68-1.31-.18-.55-.75-.85-1.31-.68-.52.17-1.03.37-1.53.62-1.04.51-1.84 1.14-2.45 1.92-.35.45-.27 1.11.18 1.46.19.15.42.22.64.22ZM1175.21 247.04c.09.5.53.85 1.02.85.07 0 .13 0 .2-.02.57-.11.93-.66.82-1.22a79 79 0 0 0-.43-2.12c-.14-.68-.28-1.33-.4-1.96a1.06 1.06 0 0 0-1.22-.83c-.57.11-.94.66-.83 1.22.12.64.26 1.3.4 1.99.14.68.29 1.38.43 2.1l.01-.01ZM1148.06 293.75c.48-.32.61-.96.3-1.44-.32-.48-.98-.62-1.45-.3-1.15.76-2.31 1.51-3.49 2.25-.48.31-.63.95-.32 1.44.2.31.53.48.88.48.19 0 .38-.05.56-.16 1.18-.75 2.36-1.51 3.52-2.28v.01ZM1135.09 350.93c-.51-.29-1.14-.11-1.43.39-.69 1.22-1.38 2.44-2.05 3.65a1.042 1.042 0 0 0 .92 1.55c.37 0 .72-.19.91-.54.67-1.2 1.34-2.42 2.04-3.63.28-.5.11-1.14-.39-1.42ZM1141.48 340.16c-.49-.3-1.13-.15-1.43.34-.73 1.19-1.45 2.39-2.17 3.59-.29.5-.13 1.13.36 1.43.17.1.35.15.53.15.35 0 .7-.18.9-.51.71-1.19 1.43-2.38 2.16-3.56.3-.49.15-1.13-.34-1.43l-.01-.01ZM1092.89 323.52l-3.61 2.11c-.5.29-.66.93-.37 1.43a1.055 1.055 0 0 0 1.43.37l3.6-2.11c.5-.29.66-.93.37-1.43-.3-.5-.95-.66-1.43-.37h.01ZM1146.27 334.56c.77-1.17 1.53-2.32 2.31-3.46.33-.48.2-1.12-.27-1.45-.46-.32-1.12-.2-1.45.27-.78 1.14-1.56 2.31-2.33 3.49-.32.48-.18 1.13.3 1.44.17.12.37.17.57.17.34 0 .67-.17.87-.47v.01ZM391.61 359.52c0-.57-.47-1.04-1.04-1.04-.57 0-1.04.47-1.04 1.04 0 .16.01.32.01.48h2.09c0-.16-.01-.32-.01-.48h-.01ZM1137.75 298.96c-.3-.5-.94-.66-1.43-.36-1.2.71-2.4 1.41-3.59 2.1a1.046 1.046 0 0 0 .52 1.95c.18 0 .36-.04.52-.14 1.2-.7 2.41-1.4 3.61-2.12.49-.29.66-.93.36-1.43h.01ZM1114.57 310.97l-3.62 2.07c-.5.29-.67.92-.39 1.42.19.34.55.52.9.52.18 0 .35-.04.52-.14l3.62-2.07c.5-.29.67-.92.39-1.42-.29-.5-.93-.68-1.42-.39v.01ZM1103.71 317.21l-3.61 2.1c-.5.29-.66.93-.38 1.43.19.33.54.52.9.52.18 0 .36-.04.53-.14l3.61-2.1c.5-.29.67-.93.38-1.43-.29-.5-.94-.67-1.42-.38h-.01ZM1125.49 304.83l-3.64 2.04c-.5.28-.68.91-.4 1.42a1.046 1.046 0 0 0 1.42.41l3.65-2.04c.5-.28.68-.92.4-1.42a1.04 1.04 0 0 0-1.42-.4l-.01-.01ZM1152.55 324.75c.32 0 .63-.14.84-.42.85-1.13 1.7-2.23 2.53-3.28.36-.45.28-1.11-.16-1.46-.45-.36-1.11-.28-1.47.16-.85 1.07-1.71 2.18-2.57 3.33-.35.46-.25 1.11.21 1.46.19.14.4.21.62.21ZM1154.34 289.17c.22 0 .43-.06.62-.2 1.14-.84 2.26-1.68 3.36-2.54.45-.35.53-1.01.18-1.46-.35-.45-1.01-.54-1.46-.18-1.08.84-2.18 1.67-3.3 2.5-.46.34-.57.99-.23 1.46.21.28.52.43.84.43l-.01-.01Z"></path><path d="M312.77 65.87c2.6 19.04 5.3 38.72 2.18 57.42-.95 5.7-2.47 11.44-3.94 16.98-1.84 6.93-3.74 14.1-4.58 21.34-1.8 15.58 2.46 29.12 11.7 37.15 16.68 14.5 43.57 9.01 65.13 2.61 22.68-6.73 43.98-14.16 55.25-30.99.53-.8 1.05-1.63 1.56-2.45 1.81-2.91 3.53-5.66 6.25-7.53 7.52-5.17 16.38-.94 25.74 3.54 6.47 3.09 13.15 6.28 19.97 6.74 10.03.66 18.42-4.68 26.58-9.85 6.58-4.17 13.39-8.49 20.99-9.67 12.56-1.96 24.78 4.81 36.21 11.91 3.39 2.11 7.62 4.73 9.3 8.54 3.25 7.36-3.16 13.09-10.58 19.72-5.86 5.24-11.93 10.66-13.56 17.52-.5 2.09-.53 4.22-.57 6.28-.04 2.26-.07 4.4-.68 6.44-2.21 7.52-10.4 10.7-19.07 14.07-6.32 2.46-12.85 4.99-17.44 9.41-5.26 5.06-7.25 11.9-9.16 18.52-.95 3.27-1.93 6.66-3.3 9.76-7.85 17.8-27.96 27.22-47.4 36.34-2.11.99-4.21 1.97-6.27 2.96-16.13 7.7-42.57 23.95-42 47.36h2.09c-.58-22.27 25.14-37.99 40.81-45.48 2.06-.98 4.16-1.97 6.26-2.95 19.79-9.28 40.26-18.87 48.42-37.39 1.42-3.22 2.42-6.68 3.39-10.02 1.93-6.65 3.75-12.92 8.6-17.6 4.29-4.12 10.62-6.58 16.75-8.96 8.76-3.4 17.81-6.92 20.31-15.42.68-2.32.72-4.7.76-7 .03-2.04.07-3.96.51-5.84 1.48-6.23 7.3-11.43 12.92-16.45 7.36-6.58 14.97-13.37 11.1-22.12-1.94-4.4-6.47-7.21-10.11-9.47-11.76-7.31-24.42-14.28-37.63-12.2-8.03 1.25-15.02 5.69-21.79 9.97-8.25 5.23-15.97 10.19-25.33 9.54-6.42-.43-12.92-3.54-19.21-6.54-9.92-4.74-19.3-9.23-27.82-3.37-3.08 2.12-4.99 5.18-6.84 8.15-.5.8-1 1.61-1.53 2.39-10.88 16.25-31.81 23.54-54.11 30.15-21.06 6.25-47.26 11.64-63.17-2.19-8.71-7.58-12.72-20.46-11-35.34.82-7.09 2.7-14.19 4.52-21.04 1.48-5.59 3.02-11.37 3.99-17.18 3.17-19.01.45-38.85-2.17-58.04-3.15-23.05-6.16-45.04.13-65.59h-2.14c-6.18 21.06-3.08 43.78-.06 65.87h.04ZM1141.14 192.46c-2 2.36-3.01 5.58-3.1 9.83-.23 11.38 5.2 21.84 10.45 31.95 2.83 5.45 5.75 11.09 7.75 16.8 1.19 3.37 2.58 8.36 1.02 12.79-1.79 5.11-12.16 12.81-18.27 16.47-11.85 7.1-23.01 14.11-33.81 20.9-31.39 19.72-61.04 38.35-98.99 53.46-4.43 1.76-8.16 3.53-11.26 5.34h4.4c2.27-1.14 4.8-2.28 7.63-3.4 38.13-15.18 67.86-33.86 99.33-53.63 10.79-6.78 21.94-13.79 33.77-20.88 5.69-3.4 17.02-11.46 19.17-17.56 1.77-5.05.26-10.51-1.02-14.18-2.05-5.85-5.01-11.55-7.88-17.07-5.37-10.34-10.43-20.1-10.21-30.95.08-3.76.92-6.54 2.6-8.53 6.03-7.14 18.7-2.28 27.7 4.06l29.87 21.03v-2.55l-28.68-20.19c-9.73-6.84-23.54-11.92-30.49-3.7l.02.01ZM1190.58 319.68c-20.6-2.02-34.32 21.3-44.37 38.35l-.73 1.23c-.14.24-.29.49-.43.73h2.42l.53-.91c9.76-16.57 23.09-39.24 42.36-37.34 3.3.33 6.62 1.52 9.93 3.11v-2.3c-3.2-1.47-6.45-2.55-9.72-2.88l.01.01Z"></path><path d="M1174.56 152.69c-8.92-3.05-13.67-7.38-17.86-11.21-6.1-5.57-11.34-10.38-25.57-9.24-16.6 1.34-25-4.9-33.15-10.92-7.59-5.61-14.75-10.91-27.11-9.06-6.15.92-8.43 4.25-9.26 6.88-3.91 12.39 15.6 36.3 25.09 45.3 20.57 19.51 39.28 47.67 50.04 75.32 3.06 7.86 5.35 14.88 2.41 21.19-2.7 5.79-10.4 11.63-16.17 14.86-8.37 4.69-15.77 8.86-22.5 12.66-36.12 20.38-52.61 29.68-93.34 47.75l-2.48 1.09c-12.17 5.35-28.07 12.35-33.99 22.68h5.03c6.29-8.15 20.5-14.4 30.64-18.86l2.5-1.1c40.92-18.15 57.46-27.48 93.7-47.93 6.73-3.79 14.13-7.97 22.49-12.65 6.62-3.71 14.8-10.05 17.92-16.73 3.94-8.44.33-17.71-2.31-24.47-10.98-28.2-30.07-56.92-51.06-76.84-11.86-11.25-26.73-32.31-23.98-41.02.7-2.21 2.63-3.52 5.9-4.01 10.61-1.59 16.84 2.99 24.02 8.29 8.37 6.18 17.86 13.17 35.96 11.72 12.43-1.01 16.59 2.84 22.42 8.16 4.49 4.1 9.58 8.75 19.33 12.08 7.83 2.67 11.07 8.72 15.16 16.36 2.62 4.91 5.6 10.48 10.3 15.82.54.61 1.09 1.19 1.64 1.78v-6.32c-3.53-4.41-5.93-8.89-8.26-13.25-4.16-7.79-8.1-15.14-17.49-18.34l-.02.01ZM326.22 55.31c.67 24.39 1.36 49.61 5.23 74.23l.26 1.61c1.09 6.86 2.22 13.96.44 20.48-.55 2.01-1.36 3.96-2.22 6.03-1.25 2.98-2.53 6.06-2.99 9.41-.83 6.09 1.9 12.35 7.5 17.18 7.84 6.77 19.54 9.45 29.13 6.67 14.41-4.18 31.38-9.43 47.92-16.64 4.97-2.17 10.81-5.37 11.89-11.01.75-3.9-1.11-7.43-2.74-10.54-.57-1.1-1.15-2.2-1.61-3.31-1.67-4.05-1.51-8.77.47-13.28 2.5-5.7 7.55-10.42 13.49-12.61 10.51-3.87 24.06-1.21 33.7 6.63 2.44 1.99 4.73 4.32 6.94 6.59 4.33 4.43 8.8 9.01 14.93 11.6 20.77 8.78 41.66-10.09 53.24-28.93 3.65-5.94 8.25-11.97 14.49-11.54 6.44.42 8.67 6.02 11.57 15.19 1 3.15 2.03 6.4 3.43 9.24 4.39 8.92 13.56 14.13 22.44 19.17 2.2 1.25 4.4 2.49 6.5 3.79 10.22 6.29 18.71 16.72 14.65 25.86-2.16 4.86-7.23 8.07-12.6 11.47-6.02 3.81-12.24 7.75-14.47 14.42-1.74 5.2-.54 10.65.63 15.91 1.36 6.14 2.54 11.43-.84 15.5-3.29 3.95-9.2 4.6-15.47 5.3-2.99.33-6.07.67-8.96 1.4-15.71 3.95-22.6 17.89-29.26 31.37-4.24 8.59-8.63 17.46-15.27 23.86-9.11 8.77-23 13.54-36.45 18.14-19.71 6.75-38.32 13.13-42.59 31.27-.77 3.25-.92 6.65-.46 10.22h4.21c-.48-3.27-.38-6.35.3-9.27 3.75-15.89 21.3-21.91 39.88-28.28 13.87-4.75 28.22-9.67 37.99-19.09 7.17-6.9 11.72-16.11 16.12-25.02 6.53-13.21 12.69-25.69 26.54-29.17 2.61-.66 5.55-.98 8.4-1.3 6.81-.76 13.85-1.54 18.21-6.78 4.69-5.64 3.18-12.47 1.71-19.08-1.1-4.92-2.13-9.57-.75-13.68 1.76-5.26 7.1-8.64 12.75-12.22 5.66-3.58 11.51-7.29 14.19-13.3 5.08-11.44-4.51-23.86-16.28-31.1-2.14-1.32-4.38-2.59-6.62-3.86-8.32-4.73-16.93-9.61-20.76-17.39-1.25-2.56-2.24-5.66-3.19-8.66-2.59-8.18-5.53-17.46-15.28-18.1-8.47-.6-14.27 6.93-18.31 13.52-11.55 18.8-30.89 34.52-48.07 27.27-5.34-2.26-9.34-6.35-13.57-10.67-2.29-2.34-4.66-4.77-7.29-6.91-10.73-8.74-25.9-11.69-37.78-7.31-6.99 2.57-12.92 8.12-15.87 14.85-2.44 5.56-2.62 11.44-.5 16.55.5 1.22 1.14 2.44 1.78 3.65 1.44 2.75 2.81 5.35 2.33 7.82-.71 3.72-5.43 6.21-9.46 7.97-16.32 7.11-33.13 12.31-47.42 16.46-8.29 2.4-18.42.06-25.24-5.82-4.58-3.95-6.74-8.73-6.09-13.46.39-2.81 1.51-5.51 2.7-8.37.88-2.1 1.78-4.27 2.4-6.54 2.02-7.39.81-14.94-.35-22.23l-.25-1.61c-3.82-24.35-4.51-49.44-5.18-73.69-.32-11.76-.66-23.91 2.68-35.33 2.04-6.98 5.43-13.54 9.43-19.86h-4.91c-3.57 5.92-6.59 12.09-8.52 18.69-3.53 12.05-3.19 24.54-2.86 36.62l.01.02Z"></path><path d="M1183.25 133.29c-20.39-15.7-32.66-17.91-43.48-19.86-11.37-2.05-20.36-3.66-35.17-20.92-16.26-18.94-54.11-23.29-70.28-25.15-2.1-.24-3.77-.43-4.91-.61-5.14-.78-22.3-2.83-27.27 3.75-1.6 2.11-1.69 4.78-.26 7.92 2.39 5.25 7.91 10.73 14.3 17.07 8.18 8.11 17.44 17.31 21.65 27.89 11.36 28.6 25.49 41.93 41.84 57.36 10 9.44 20.34 19.2 31.37 33.61 8.51 11.12 15.8 23.32 11.55 37.22-3.31 10.83-26.06 27.43-37.51 33.92-29.06 16.46-49.23 26.28-77.11 37.5a518.43 518.43 0 0 1-8.93 3.47c-19.09 7.29-38.84 14.83-44.86 33.24-.03.09-.05.19-.07.29h2.18c5.87-17.21 24.99-24.51 43.5-31.58 3.01-1.15 6.02-2.3 8.97-3.49 27.97-11.26 48.21-21.1 77.35-37.62 11.7-6.63 34.99-23.73 38.47-35.12 4.53-14.8-3.04-27.53-11.89-39.09-11.14-14.54-21.54-24.36-31.6-33.86-16.17-15.27-30.14-28.45-41.33-56.62-4.37-10.99-13.8-20.35-22.12-28.61-5.98-5.94-11.64-11.55-13.87-16.45-1.1-2.42-1.1-4.32.02-5.8 2.79-3.7 12.72-4.86 25.29-2.95 1.16.18 2.86.37 4.99.62 15.92 1.83 53.21 6.12 68.94 24.44 15.29 17.82 25.06 19.58 36.38 21.61 10.59 1.91 22.59 4.07 42.58 19.46 6.18 4.76 12.16 10.93 18.33 17.6v-3.07c-5.7-6.1-11.26-11.72-17.06-16.19l.01.02ZM356.59 144.52c1.95 6.43 6.67 17.17 16.52 17.17h.2c9.75-.15 14.23-10.54 16.75-18.35 4.34-13.42 11.19-30.13 25.8-40.29 13.21-9.18 34.98-10.93 46.35 1.12 2.1 2.23 3.79 4.87 5.43 7.43 2.07 3.24 4.21 6.59 7.26 9.27 5.7 5 13.05 6.82 21.32 5.26 13.42-2.53 28.22-14.14 35.18-27.61 4.89-9.44 13.95-20.27 22.3-21.72 3.15-.56 5.99.32 8.45 2.6 2.19 2.03 3.72 4.69 4.31 7.48 9.66 45.89 47.33 59.53 74.83 69.49 15.47 5.6 27.69 10.03 30.62 18.14.86 2.38.83 4.26-.1 5.75-2.65 4.25-12.4 5.32-22.72 6.46-13.13 1.45-28 3.09-34.14 11.73-5.76 8.12-4.2 18.62-2.7 28.78 1.69 11.36 3.28 22.1-5.75 28-3.98 2.6-8.87 3.24-14.04 3.92-2.65.35-5.4.71-8.01 1.35-17 4.22-25.77 19.1-34.24 33.5-7.43 12.63-15.12 25.69-28.38 31.88-6.9 3.22-15.38 4.74-23.59 6.21-15.29 2.74-29.74 5.32-34.29 18.14-1.08 3.05-1.34 6.29-.78 9.75h2.12c-.57-3.24-.37-6.25.63-9.05 4.15-11.67 18.01-14.15 32.69-16.78 8.34-1.49 16.96-3.04 24.1-6.37 13.84-6.47 21.7-19.81 29.29-32.72 8.63-14.67 16.79-28.53 32.95-32.53 2.5-.62 5.18-.97 7.77-1.31 5.18-.68 10.54-1.38 14.91-4.24 10.15-6.64 8.38-18.54 6.67-30.06-1.45-9.75-2.95-19.84 2.34-27.27 5.59-7.87 19.97-9.46 32.66-10.86 11.31-1.25 21.08-2.32 24.26-7.43 1.27-2.04 1.37-4.59.29-7.57-3.26-9.03-15.89-13.6-31.87-19.39-27.05-9.8-64.09-23.22-73.51-67.96-.68-3.21-2.42-6.26-4.93-8.58-2.96-2.74-6.37-3.8-10.22-3.13-9.05 1.58-18.67 12.93-23.79 22.82-6.7 12.94-20.88 24.09-33.72 26.51-7.57 1.45-14.35-.22-19.55-4.78-2.83-2.48-4.8-5.56-6.88-8.82-1.69-2.64-3.43-5.37-5.67-7.74-12.1-12.83-35.13-11.08-49.06-1.4-15.12 10.51-22.16 27.62-26.6 41.36-2.32 7.19-6.38 16.77-14.8 16.9h-.17c-8.51 0-12.75-9.81-14.53-15.69-14.33-47.3-12.1-97.93 5.58-143.92h-2.23c-17.58 46.22-19.73 97.03-5.35 144.52l.04.03Z"></path><path d="M385.9 308.52c7.01-7.57 10.34-13.7 13.56-19.63 2.49-4.58 4.83-8.9 8.76-13.84 4.24-5.33 8.78-9.12 12.77-12.46 6.91-5.78 12.37-10.34 9-18.4-1.28-3.06-3.65-5.29-7.04-6.62-14.71-5.78-45.44 6.87-57.96 12.57-19.98 9.1-39.94 5.6-59.25 2.21-7.48-1.31-14.54-2.55-21.55-3.08-8.97-.67-18.17-1.82-23.34-7.7-4.68-5.31-4.53-13.02-4.03-19.83.86-11.67 2.27-23.58 3.63-35.1 3.75-31.73 7.63-64.54.55-96.19-.95-4.26-2.11-8.53-3.24-12.67-1.36-4.99-2.76-10.15-3.79-15.28-4.28-21.28-3.3-43.05 2.42-62.49h-2.16c-5.66 19.62-6.61 41.51-2.3 62.9 1.05 5.19 2.46 10.39 3.82 15.42 1.12 4.11 2.27 8.36 3.21 12.57 7 31.31 3.15 63.94-.58 95.49-1.36 11.54-2.77 23.47-3.63 35.19-.53 7.23-.66 15.44 4.55 21.36 5.7 6.47 15.35 7.7 24.75 8.41 6.91.52 13.93 1.75 21.35 3.05 19.62 3.44 39.9 7 60.47-2.36 12.28-5.59 42.37-18.02 56.34-12.53 2.88 1.13 4.8 2.92 5.87 5.48 2.77 6.64-1.44 10.16-8.42 15.99-4.08 3.41-8.7 7.27-13.07 12.77-4.05 5.08-6.54 9.69-8.96 14.15-3.16 5.82-6.43 11.84-13.26 19.21-13.72 14.82-16.83 25.39-20.43 37.62-1.43 4.86-2.89 9.81-5.09 15.28h2.23c2.1-5.36 3.53-10.19 4.85-14.69 3.52-11.98 6.57-22.33 19.96-36.79l.01-.01ZM63.56 19.64c-2.67 8.46-5.43 17.2-6.12 26.17-.51 6.58.81 11.23 4.05 14.22 3.59 3.32 9.12 4.03 13.15 4.55 6.31.81 12.84 1.65 19.33.73 19.26-2.74 31.54-19.4 41.53-34.81l12.1-18.64c2.29-3.53 4.89-7.53 7.18-11.86h-2.39c-1.94 3.51-4.17 7.06-6.54 10.72l-12.1 18.64c-9.74 15.02-21.69 31.26-40.08 33.88-6.2.89-12.6.06-18.77-.73-4.88-.63-9.14-1.36-12.01-4.01-2.73-2.53-3.84-6.62-3.39-12.52.68-8.73 3.4-17.36 6.03-25.7 1.93-6.1 3.92-12.42 5.13-18.79.09-.49.17-.98.26-1.48H68.8c-.06.36-.12.73-.19 1.09-1.19 6.25-3.16 12.51-5.06 18.55l.01-.01ZM33.55 359.08c4.45-8.51 9.06-17.32 14.82-25.17 5.54-7.54 17.91-17.3 27.45-11.4 9.34 5.77 4.36 20.43 2.56 24.91-1.57 3.92-3.3 8.23-4.31 12.58h4.3c.96-3.71 2.47-7.51 3.93-11.15 5.49-13.67 3.89-24.84-4.29-29.89-10.66-6.59-24.96 1.52-33.01 12.48-5.95 8.11-10.63 17.06-15.15 25.71-.5.95-.99 1.9-1.49 2.85h4.71c.16-.31.32-.61.48-.92ZM192.33 184.12c.13.05.26.08.39.08.41 0 .81-.25.97-.66a72.76 72.76 0 0 0 1.46-3.97 1.04 1.04 0 0 0-.66-1.32c-.54-.18-1.13.12-1.32.66-.43 1.3-.91 2.58-1.42 3.85-.21.53.05 1.14.58 1.35v.01ZM119.7 217.83c.76.27 1.51.55 2.27.84l1.64.61a1.054 1.054 0 0 0 1.34-.62c.2-.54-.08-1.14-.62-1.34l-1.63-.6c-.77-.29-1.53-.57-2.3-.85-.53-.18-1.14.09-1.33.63-.2.54.09 1.14.63 1.33ZM95.34 215.3h.05c1.39-.06 2.77-.12 4.15-.16.58-.01 1.03-.49 1.02-1.07-.02-.57-.48-1.02-1.04-1.02h-.02c-1.4.03-2.79.09-4.2.16a1.04 1.04 0 0 0 .05 2.08l-.01.01ZM143.85 218.64c.21 0 .43-.07.61-.2 1.14-.82 2.23-1.82 3.24-2.97a1.042 1.042 0 0 0-1.56-1.38c-.91 1.03-1.89 1.92-2.9 2.66-.47.34-.57.99-.23 1.46.2.28.52.43.84.43ZM131.87 221.52c.81.1 1.63.16 2.46.16.47 0 .94-.02 1.41-.05l.51-.05c.57-.06.99-.57.94-1.14-.06-.57-.55-.97-1.14-.94l-.48.05c-1.17.09-2.31.04-3.45-.1-.54-.09-1.09.34-1.16.91-.07.57.33 1.09.91 1.16ZM163.72 319.93a23.653 23.653 0 0 0-.23 4.35c.02.56.48 1 1.04 1h.05a1.05 1.05 0 0 0 1-1.09c-.01-.28-.02-.56-.02-.85 0-1.02.08-2.07.22-3.13.08-.57-.31-1.1-.88-1.18-.58-.07-1.1.32-1.18.89v.01ZM161.82 172.83c.12.04.24.06.36.06.42 0 .83-.26.98-.68.48-1.3.97-2.59 1.47-3.87.21-.54-.05-1.14-.59-1.35-.52-.21-1.14.05-1.35.58-.52 1.3-1.01 2.61-1.49 3.93-.2.54.08 1.14.62 1.34v-.01ZM158.07 184.77c.09.03.19.04.28.04.46 0 .88-.3 1-.76.38-1.33.76-2.66 1.17-3.98a1.04 1.04 0 0 0-.69-1.3c-.54-.16-1.14.14-1.3.69-.41 1.34-.8 2.68-1.18 4.03-.15.55.17 1.13.73 1.29l-.01-.01ZM155.11 196.93a1.045 1.045 0 0 0 1.26-.76c.33-1.3.62-2.58.9-3.82l.07-.31c.1-.56-.29-.97-.84-1.08-.57-.13-1.13.36-1.26.92-.28 1.23-.57 2.5-.89 3.78-.14.56.2 1.12.76 1.26v.01ZM82.84 215.91h.02c1.39-.03 2.79-.09 4.19-.16.57-.03 1.02-.52.99-1.09-.03-.57-.47-1.09-1.09-.99-1.39.06-2.77.12-4.14.15-.57.01-1.03.49-1.02 1.07.01.57.48 1.02 1.04 1.02h.01ZM13.58 214.31c.11.04.22.06.33.06.44 0 .84-.27.99-.71.44-1.3.9-2.59 1.42-3.85.22-.53-.04-1.14-.57-1.36-.53-.22-1.14.04-1.36.57a72.32 72.32 0 0 0-1.47 3.98c-.18.55.11 1.14.66 1.32v-.01ZM10.16 226.35a1.047 1.047 0 0 0 1.29-.72l1.1-4.03c.15-.56-.18-1.13-.73-1.28-.54-.14-1.12.18-1.28.73l-1.1 4.02c-.15.56.17 1.13.73 1.28h-.01ZM70.18 215.14c1.34.24 2.72.43 4.23.56h.09c.53 0 .99-.41 1.04-.95a1.05 1.05 0 0 0-.95-1.13c-1.45-.13-2.77-.3-4.04-.54-.62-.1-1.11.27-1.21.84-.1.57.27 1.11.84 1.21v.01ZM6.02 238.15a1.033 1.033 0 0 0 1.37-.53c.57-1.29 1.08-2.61 1.56-3.94.2-.54-.09-1.14-.63-1.33-.53-.19-1.14.09-1.33.63-.46 1.29-.96 2.56-1.5 3.8-.23.53 0 1.14.53 1.38v-.01ZM18.6 202.88a1 1 0 0 0 .57.17c.34 0 .67-.17.87-.47.75-1.14 1.57-2.22 2.42-3.22.38-.44.33-1.1-.11-1.47-.43-.38-1.09-.33-1.47.11-.91 1.06-1.78 2.22-2.59 3.43-.32.48-.18 1.13.3 1.44l.01.01ZM166.49 161.22a1.05 1.05 0 0 0 1.38-.52c.57-1.26 1.16-2.51 1.76-3.75.25-.52.04-1.14-.48-1.39-.53-.25-1.14-.04-1.39.48-.61 1.26-1.21 2.53-1.78 3.8-.24.53 0 1.14.52 1.38h-.01ZM49.99 202.66c.63.67 1.26 1.35 1.9 2.01.2.21.48.32.75.32s.52-.1.72-.29c.42-.4.43-1.06.03-1.47-.63-.66-1.26-1.33-1.88-1.99l-.97-1.04c-.39-.42-1.06-.44-1.47-.04-.42.4-.44 1.06-.04 1.47l.97 1.03h-.01ZM61.99 212.56a1.049 1.049 0 0 0 1.39-.49c.25-.52.03-1.14-.49-1.39-1.21-.58-2.38-1.26-3.45-2.01a1.04 1.04 0 0 0-1.45.25c-.33.47-.22 1.12.26 1.45 1.17.82 2.43 1.55 3.74 2.19ZM39.71 194c1.11.51 2.21 1.17 3.36 2.04.19.14.41.21.63.21.31 0 .63-.14.83-.42.35-.46.26-1.11-.2-1.46-1.28-.96-2.5-1.7-3.75-2.27-.52-.23-1.14 0-1.38.52-.24.53 0 1.14.52 1.38h-.01ZM28.09 194.47c.16 0 .33-.04.48-.12 1.21-.62 2.43-1.05 3.64-1.29.57-.11.94-.66.83-1.22-.1-.56-.64-.93-1.22-.83-1.41.27-2.83.77-4.2 1.48-.51.26-.71.89-.45 1.41.18.36.55.56.92.56v.01ZM107.77 215.3c1.37.1 2.72.25 4.06.46.06 0 .11.01.16.01a1.042 1.042 0 0 0 .16-2.07c-1.39-.22-2.8-.38-4.23-.48-.55-.05-1.08.39-1.12.96-.04.57.39 1.08.96 1.12h.01ZM198.95 349.88c1.32.41 2.64.84 3.92 1.31.12.04.24.06.35.06.43 0 .83-.26.98-.69.2-.54-.09-1.14-.63-1.33-1.31-.47-2.65-.91-4-1.33-.54-.18-1.13.13-1.3.69-.17.55.13 1.13.68 1.31v-.02ZM185.68 242.91c-.32-1.35-.63-2.7-.93-4.06-.13-.56-.68-.92-1.25-.79-.56.13-.92.69-.79 1.25.31 1.36.62 2.72.94 4.07.11.48.54.8 1.01.8.08 0 .16 0 .24-.03.56-.13.91-.69.77-1.25l.01.01ZM3.18 245.05c.34-.47.24-1.12-.23-1.46a1.03 1.03 0 0 0-1.45.23c-.38.52-.78 1.03-1.19 1.52v3.09s.08-.05.12-.08c.98-1.03 1.91-2.14 2.75-3.3ZM182.49 226.66c-.07-.57-.54-1.01-1.17-.91-.57.07-.98.59-.9 1.16.17 1.39.38 2.78.62 4.17.09.51.53.87 1.03.87.06 0 .12 0 .18-.01.57-.1.95-.64.85-1.21-.23-1.36-.44-2.72-.61-4.08v.01ZM210.31 354.51c1.21.7 2.33 1.45 3.33 2.23.19.15.42.22.64.22.31 0 .61-.14.82-.4.36-.45.28-1.11-.18-1.46-1.08-.85-2.28-1.66-3.59-2.4-.5-.29-1.14-.12-1.42.39-.29.5-.11 1.14.39 1.42h.01ZM194.97 166.98c.02.42.02.84.02 1.27 0 .93-.04 1.85-.12 2.77-.05.57.37 1.08.95 1.13h.09c.53 0 .99-.41 1.04-.95.09-.98.13-1.97.13-2.96 0-.45 0-.9-.02-1.34-.02-.56-.48-1-1.04-1h-.04c-.57.02-1.02.51-1 1.08h-.01ZM2.03 4.72a1.05 1.05 0 0 0-1.45.31c-.09.14-.18.27-.27.4v3.61C1 8.12 1.69 7.16 2.34 6.17c.31-.48.18-1.13-.31-1.44v-.01ZM193.55 159.09c.15.43.55.71.99.71.11 0 .22-.02.33-.06.55-.19.84-.78.65-1.32-.48-1.41-1.07-2.75-1.74-3.98-.27-.5-.92-.69-1.41-.41-.51.28-.69.91-.41 1.42.61 1.12 1.15 2.35 1.6 3.65l-.01-.01ZM188.5 268.88c.57 0 1.04-.47 1.04-1.04v-.39c0-1.28-.04-2.57-.14-3.85-.04-.58-.59-1.02-1.11-.97-.57.04-1.01.54-.97 1.11.09 1.24.13 2.47.13 3.7v.39c0 .58.47 1.04 1.04 1.04l.01.01ZM169.39 307.43a1.06 1.06 0 0 0-1.42.41c-.7 1.28-1.33 2.57-1.87 3.84-.23.53.02 1.14.55 1.37a1.056 1.056 0 0 0 1.37-.55c.52-1.21 1.12-2.44 1.79-3.66.27-.5.09-1.14-.42-1.42v.01ZM187.52 280.48c.46-1.33.84-2.72 1.14-4.14.12-.56-.24-1.12-.8-1.24-.58-.12-1.12.24-1.23.8-.29 1.34-.65 2.65-1.07 3.9-.19.55.1 1.14.65 1.32.11.04.23.06.34.06.43 0 .84-.27.99-.71l-.02.01ZM187.31 256.44c.06 0 .12 0 .18-.02.57-.1.94-.64.84-1.21-.24-1.38-.52-2.75-.8-4.13-.12-.56-.68-.94-1.23-.81-.57.12-.92.67-.81 1.23.29 1.36.55 2.72.79 4.07.09.51.53.86 1.03.86v.01ZM180.76 292.24c.33 0 .66-.16.86-.46.79-1.18 1.56-2.36 2.27-3.57.29-.5.13-1.14-.37-1.43-.5-.29-1.14-.13-1.43.37-.7 1.18-1.43 2.33-2.2 3.47a1.044 1.044 0 0 0 .86 1.63l.01-.01ZM174.73 340.2c-.28.5-.1 1.14.4 1.42 1.16.65 2.45 1.28 3.84 1.88.13.06.27.09.41.09.4 0 .79-.24.96-.63.23-.53-.02-1.14-.55-1.37-1.32-.57-2.55-1.17-3.65-1.79-.51-.28-1.14-.11-1.42.4h.01ZM175.04 297.35c-.83 1.12-1.66 2.24-2.47 3.38a1.052 1.052 0 0 0 .85 1.66c.32 0 .64-.15.85-.43.81-1.12 1.63-2.24 2.46-3.36.34-.46.24-1.12-.22-1.46a1.06 1.06 0 0 0-1.46.22l-.01-.01ZM172.73 150.25c.31 0 .63-.14.83-.41.87-1.16 1.77-1.98 2.73-2.52.51-.28.68-.91.41-1.42-.28-.5-.92-.68-1.42-.4-1.23.68-2.33 1.69-3.38 3.08a1.039 1.039 0 0 0 .83 1.67ZM167.63 331.71a1.03 1.03 0 0 0-1.41-.41c-.51.28-.69.91-.41 1.42.7 1.27 1.54 2.47 2.52 3.58.21.23.49.35.78.35.24 0 .49-.09.69-.26.43-.38.47-1.04.09-1.47-.88-.99-1.64-2.07-2.26-3.2v-.01ZM186.6 194.11c-.24.52-.02 1.14.51 1.39.14.07.29.1.44.1.39 0 .77-.22.94-.6l1.78-3.77c.24-.52.02-1.14-.5-1.39-.51-.24-1.14-.02-1.39.5l-1.78 3.78v-.01ZM180.94 219.51h.01c.57 0 1.03-.46 1.04-1.03.02-1.4.09-2.77.23-4.07.06-.57-.36-1.08-.93-1.14-.64-.08-1.08.36-1.15.93-.14 1.36-.22 2.8-.24 4.26 0 .58.46 1.05 1.03 1.06l.01-.01ZM183.42 147.62c1.22.51 2.37 1.15 3.41 1.91.19.13.4.2.61.2.32 0 .64-.15.84-.43.34-.47.24-1.12-.23-1.46-1.18-.86-2.48-1.58-3.85-2.15a1.037 1.037 0 1 0-.79 1.92l.01.01ZM186.25 345.05c-.17.55.14 1.13.69 1.3 1.32.41 2.67.8 4.03 1.19.09.03.19.04.28.04a1.044 1.044 0 0 0 .28-2.05c-1.34-.38-2.67-.77-3.98-1.18-.57-.18-1.14.14-1.31.69l.01.01ZM182.56 207.15c.1.03.2.05.3.05.45 0 .86-.29 1-.74.4-1.3.85-2.59 1.34-3.87a1.045 1.045 0 0 0-1.95-.75c-.51 1.33-.98 2.66-1.39 4.01-.17.55.14 1.13.7 1.3ZM150.92 208.71c.15.07.29.1.44.1.39 0 .77-.22.95-.6.57-1.21 1.12-2.54 1.63-3.94.2-.54-.08-1.14-.62-1.34-.53-.2-1.14.08-1.34.62-.5 1.34-1.02 2.61-1.56 3.77-.24.52-.02 1.14.5 1.39Z"></path><path d="M26.6 295.91c6-6.89 12.19-14.02 20.61-16.21 6.68-1.75 13.49-.1 20.69 1.65 6.53 1.58 13.29 3.22 19.97 2.1 8.95-1.5 15.65-7.45 22.13-13.2 2.31-2.04 4.69-4.16 7.12-6.01 6.23-4.77 15.15-7.37 21.7-6.31 3.75.61 6.59 2.3 8.45 5.03 3.95 5.81 1.19 13.4-2.39 20.73-8.91 18.28-18.12 37.18-24.83 53.94-2.47 7.33-1.45 15.53 2.34 22.38h2.41c-3.99-6.53-5.18-14.56-2.79-21.66 6.65-16.64 15.85-35.5 24.75-53.75 3.85-7.89 6.79-16.12 2.24-22.81-2.16-3.18-5.56-5.23-9.84-5.92-7.17-1.16-16.53 1.53-23.3 6.71-2.49 1.9-4.9 4.04-7.23 6.11-6.55 5.81-12.74 11.3-21.09 12.7-6.27 1.05-12.82-.53-19.14-2.07-7.13-1.73-14.5-3.52-21.71-1.64-9.04 2.36-15.45 9.73-21.66 16.86-7.35 8.45-14.3 16.4-24.7 14.8H.31v2.1c11.35 1.59 18.95-7.11 26.29-15.53ZM360.67 312.37c3.04-5.05 6.8-9.9 10.44-14.6 5.39-6.96 10.98-14.16 14.52-22.33 1.1-2.53 2.09-5.53 1.15-8.56-.69-2.21-2.29-3.99-4.62-5.15-3.33-1.66-7.9-1.87-11.66-.52-3.61 1.29-6.55 3.49-9.41 5.62-1.4 1.04-2.8 2.09-4.27 3.01-13.07 8.2-30.65 6.31-47.7 3.04-16.58-3.17-35.45-7.44-49.63-17.94-13.69-10.14-24.59-28.22-17.81-41.74 8.35-16.65 7.37-34.99 6.42-52.73-.37-6.82-.75-13.87-.59-20.72.08-3.41.38-6.93.68-10.34.7-8.11 1.42-16.5-.71-24.67-1.58-6.06-4.64-11.62-7.61-16.99-1.45-2.63-2.9-5.26-4.18-7.96-9.91-20.85-10.08-46.96-.53-79.8h-4.34c-9.5 33.32-9.14 60.03 1.1 81.59 1.32 2.79 2.84 5.53 4.3 8.18 2.97 5.39 5.77 10.47 7.23 16.03 1.95 7.47 1.29 15.14.59 23.26-.3 3.47-.61 7.05-.69 10.6-.16 7.01.22 14.14.59 21.04.97 17.99 1.88 34.97-5.98 50.64-7.8 15.56 4 35.8 19.06 46.96 14.89 11.02 34.3 15.43 51.33 18.69 17.87 3.42 36.39 5.36 50.7-3.61 1.57-.99 3.06-2.09 4.55-3.21 2.73-2.03 5.3-3.95 8.32-5.03 2.7-.96 6.07-.83 8.39.33 1.31.65 2.15 1.55 2.5 2.66.54 1.73-.2 3.83-.99 5.66-3.33 7.69-8.75 14.67-13.99 21.43-3.71 4.79-7.55 9.74-10.72 15-5.01 8.33-7.08 16.91-9.07 25.21-2.03 8.43-3.99 16.6-8.8 24.57h4.78c4.29-7.86 6.2-15.8 8.08-23.59 2.01-8.36 3.91-16.26 8.59-24.03h-.02ZM42.99 34.08c-2.09 3.05-4.25 6.2-6.01 9.54-4.72 8.98-5.02 17.77-.85 24.12 4.27 6.47 12.34 9.46 20.44 11.72 11.53 3.22 23.39 5.86 35.26 7.84 10.51 1.75 21.47 2.69 30.45-2.27 7.93-4.38 12.31-12.41 15.82-18.87l31.57-57.99c1.4-2.56 2.88-5.31 4.28-8.18h-4.66c-1.09 2.15-2.22 4.22-3.28 6.18l-31.57 57.99c-3.26 5.98-7.3 13.42-14.17 17.21-7.86 4.33-17.98 3.42-27.75 1.8a330.487 330.487 0 0 1-34.82-7.74c-7.32-2.05-14.57-4.67-18.08-10-4.71-7.16-.84-16.3 1.05-19.89 1.65-3.13 3.73-6.18 5.75-9.13 2.37-3.45 4.82-7.02 6.68-10.88 3.92-8.11 5-16.82 5.25-25.56h-4.17c-.24 8.34-1.25 16.3-4.84 23.74-1.73 3.57-3.98 6.86-6.36 10.33l.01.04Z"></path><path d="M332.27 336.88c4.28-10.5 2.22-22.12-5.11-28.93-9.42-8.73-23.45-8.02-37.01-7.32-12.28.62-24.99 1.28-34.3-4.99-7.07-4.76-10.76-12.65-14.01-19.6-9.62-20.6-20.53-43.96-18.65-67.9.37-4.64 1.22-9.34 2.05-13.89 1.08-5.94 2.21-12.08 2.27-18.25.05-5.68-.8-11.38-1.63-16.89-.95-6.32-1.93-12.86-1.5-19.27.24-3.52.9-7.08 1.55-10.53.71-3.81 1.45-7.74 1.63-11.7.58-12.44-4.26-24.29-8.93-35.75-3.08-7.54-6.25-15.33-7.86-23.21-3.17-15.52-.33-31.58 2.41-47.11.67-3.82 1.35-7.67 1.95-11.55h-2.11c-.58 3.75-1.24 7.49-1.9 11.19-2.77 15.73-5.65 31.99-2.4 47.89 1.65 8.08 4.87 15.96 7.98 23.59 4.8 11.77 9.34 22.88 8.78 34.87-.18 3.81-.9 7.67-1.6 11.41-.66 3.51-1.34 7.14-1.58 10.78-.44 6.63.55 13.28 1.52 19.71.82 5.43 1.65 11.04 1.61 16.56-.06 5.98-1.16 12.04-2.23 17.89-.84 4.6-1.71 9.35-2.08 14.1-1.93 24.49 9.11 48.1 18.83 68.94 3.2 6.85 7.18 15.37 14.73 20.45 9.89 6.66 22.94 6 35.57 5.34 13.73-.71 26.72-1.37 35.48 6.76 7.74 7.19 7.89 18.55 4.6 26.62-3.13 7.69-9.36 14.84-19.61 22.53l-1.85 1.38h3.48c10.33-7.81 16.67-15.17 19.91-23.12h.01ZM.31 52.86v3.46c3-4.09 6.49-7.98 9.6-11.45C22.08 31.31 31.13 16.06 37.99 0h-2.28C28.98 15.57 20.16 30.34 8.36 43.48c-2.59 2.88-5.42 6.04-8.05 9.38ZM12.56 94.65l65.38 24.41c16.05 5.99 32.99 11.36 48.18 5.74 19.42-7.19 25.12-26.96 30.62-46.08 1.94-6.75 3.95-13.73 6.53-19.98 3.4-8.24 8.43-16.21 13.3-23.92C183.54 23.77 190.71 12.41 193.2 0h-2.12c-2.42 11.73-9.18 22.47-16.27 33.71-4.91 7.78-9.99 15.83-13.46 24.24-2.62 6.36-4.65 13.39-6.61 20.2-5.36 18.62-10.91 37.88-29.34 44.71-14.52 5.37-31.05.11-46.72-5.74L13.29 92.69C8.5 90.9 3.91 89.04.31 86.47V89c3.57 2.29 7.83 4.01 12.26 5.66l-.01-.01ZM452.99 29.77c4.1 5.69 11.25 9.03 18.3 9.03 2.25 0 4.49-.34 6.62-1.06 4.77-1.6 8.76-5.15 10.94-9.73 1.9-3.99 2.16-8.28.74-12.07-.56-1.51-1.35-2.94-2.11-4.32-1.53-2.78-2.86-5.18-2.14-7.42.44-1.38 1.71-2.73 3.89-4.12.05-.03.09-.06.14-.08H483c-.76.94-1.31 1.91-1.63 2.94-1.26 3.95.72 7.54 2.46 10.7.73 1.31 1.41 2.55 1.87 3.77 1.02 2.72.81 5.85-.6 8.81-1.67 3.51-4.85 6.34-8.5 7.56-7.03 2.36-15.89-.48-20.21-6.46-4.13-5.72-4.15-13.77-.05-20.04 1.57-2.41 3.65-4.52 5.84-6.75.18-.18.35-.36.53-.54h-5.8c-1.46 1.56-2.88 3.19-4.07 5.01-5.04 7.7-4.97 17.65.16 24.76l-.01.01Z"></path><path d="M371.21 101.89c13.33 6.7 28.46-4.68 38.49-12.2 9-6.74 26.4-17.12 41.92-10.99 5.8 2.29 10.18 6.42 14.83 10.79 2.3 2.17 4.68 4.41 7.23 6.38 8.1 6.27 20.63 9.35 27.9 2.7 2.81-2.57 4.16-6.04 5.48-9.39 1.4-3.59 2.73-6.97 5.7-9.15 2.05-1.51 4.61-2.22 7.32-2.98 1.2-.34 2.4-.67 3.57-1.08 9.46-3.31 12.94-11.94 16.32-20.28 2.73-6.75 5.55-13.74 11.53-18.14 5.37-3.96 10.44-5.14 15.08-3.5 10.44 3.69 15.36 19.65 16.62 24.46 1.46 5.55 2.27 12.01 3.13 18.86 1.59 12.64 3.23 25.72 9.19 35.03 10.47 16.38 30.61 23.37 50.09 30.14 17.52 6.09 35.64 12.38 46.86 25.45 1.46 1.7 3.19 3.97 3.64 6.5.4 2.25-.11 4.37-1.52 6.29-3.81 5.17-13.09 8.02-20.52 8.97-21.8 2.76-42.83 7.6-49.07 24.07-3.22 8.49-1.08 17.5 1 26.21.37 1.56.74 3.11 1.08 4.65 1.96 8.96 2.56 21.05-5.76 27.72-5.24 4.2-12.22 4.99-19.62 5.83-4.98.56-10.12 1.15-14.78 2.86-12.32 4.51-18.77 15.53-25 26.18-4.46 7.63-9.08 15.51-15.84 21.13-11.08 9.2-26.68 11.52-41.77 13.76-3.41.51-6.8 1.01-10.13 1.59-3.21.56-6.57 1.28-9.11 3.33-3.39 2.74-5.08 5.56-5.17 8.62-.04 1.42.27 2.86.92 4.34h2.34c-.81-1.5-1.22-2.93-1.18-4.27.07-2.42 1.51-4.73 4.4-7.07 2.15-1.74 5.21-2.39 8.15-2.9 3.31-.57 6.69-1.08 10.08-1.58 15.37-2.28 31.26-4.64 42.79-14.22 7.04-5.85 11.75-13.89 16.3-21.68 6.32-10.81 12.3-21.02 23.91-25.28 4.42-1.62 9.45-2.19 14.3-2.74 7.37-.84 14.98-1.7 20.69-6.27 9.15-7.34 8.58-20.25 6.49-29.79-.34-1.55-.71-3.12-1.08-4.69-2-8.4-4.07-17.09-1.08-24.98 5.85-15.45 26.24-20.06 47.38-22.74 7.85-1 17.74-4.09 21.93-9.8 1.76-2.4 2.4-5.05 1.89-7.89-.54-3.02-2.48-5.59-4.11-7.49-11.57-13.49-29.96-19.88-47.75-26.06-20.02-6.95-38.93-13.52-49.01-29.29-5.7-8.91-7.32-21.75-8.88-34.16-.87-6.91-1.69-13.44-3.18-19.12-1.33-5.06-6.54-21.86-17.95-25.89-5.32-1.88-11.05-.6-17.01 3.79-6.45 4.75-9.38 12.01-12.22 19.04-3.34 8.28-6.51 16.09-15.07 19.09-1.12.39-2.28.72-3.44 1.04-2.77.77-5.64 1.57-8 3.31-3.46 2.54-4.95 6.37-6.4 10.07-1.28 3.28-2.49 6.37-4.94 8.61-6.19 5.67-17.68 3.03-25.21-2.81-2.47-1.91-4.81-4.12-7.08-6.25-4.58-4.32-9.32-8.78-15.49-11.22-16.48-6.5-34.6 4.27-43.94 11.26-9.62 7.21-24.16 18.11-36.3 12-10.16-5.1-10.67-18.1-9.97-28.86 1.54-23.86 4.18-49.4 13.33-71.16h-2.28c-8.99 21.85-11.6 47.27-13.13 71.02-.68 10.51-.26 25.15 11.11 30.86v-.03ZM1118.67 73.08c-3.51-2-7.02-4.21-10.41-6.34-9.4-5.91-19.12-12.03-30.31-14.77-9.48-2.33-19.42-2.08-29.02-1.85-5.39.13-10.95.27-16.36-.05-12.66-.75-25.47-4.02-37.85-7.19-19.85-5.07-40.39-10.33-60.3-4.96-3.02.81-7.26 2.3-9.1 5.73-.92 1.71-1.19 3.77-.86 6.48 2.21 17.7 21.4 27.51 38.33 36.17 2.37 1.21 4.7 2.41 6.96 3.6 18.16 9.63 34.87 23.39 48.33 39.79 5.12 6.23 9.83 12.91 14.39 19.36 4.13 5.85 8.4 11.89 12.98 17.62 11.84 14.83 27.62 31.98 48.24 52.42 13.06 12.95 17.6 23.58 14.3 33.46-6.55 19.62-79.66 48.44-142.62 71.36-10.34 3.76-21.1 8.07-29.09 15.61-5.38 5.08-9.75 12.68-10.02 20.48h2.1c.27-7.18 4.34-14.23 9.36-18.97 7.7-7.27 18.24-11.48 28.38-15.17 67.33-24.51 137.09-52.3 143.89-72.66 3.58-10.72-1.12-22.03-14.81-35.6-20.56-20.38-36.29-37.47-48.08-52.24-4.53-5.68-8.79-11.7-12.9-17.52-4.58-6.49-9.32-13.19-14.48-19.48-13.64-16.61-30.57-30.55-48.97-40.31-2.27-1.2-4.62-2.4-6.99-3.62-17.27-8.83-35.13-17.97-37.21-34.57-.28-2.26-.09-3.92.62-5.24 1.46-2.72 5.15-3.98 7.81-4.7 19.38-5.21 38.74-.27 59.24 4.97 12.48 3.19 25.38 6.49 38.24 7.25 5.49.32 11.1.19 16.54.05 9.48-.23 19.27-.47 28.47 1.78 10.86 2.67 20.44 8.69 29.7 14.51 3.41 2.15 6.93 4.36 10.49 6.39 10.99 6.28 23.15 11.24 34.91 16.05 16.74 6.84 33.96 13.89 47.76 24.78v-2.65c-13.78-10.5-30.6-17.38-46.96-24.07-11.7-4.78-23.8-9.72-34.67-15.93l-.03.03ZM730.98 43.54c2.54 7.22 9.61 11.85 16.86 15.78 3.1 1.68 6.85 3.39 10.51 3.39 1.44 0 2.88-.26 4.25-.9 2.87-1.33 4.6-3.97 6-6.1 5.49-8.35 10.65-17.26 8.39-26.36-2.07-8.32-9.57-14-17.74-19.57-3.47-2.36-7.21-4.62-11.39-4.04-4.58.64-7.53 4.46-9.19 7.56-.65 1.22-1.38 2.4-2.1 3.55-1.21 1.96-2.35 3.81-3.04 5.64-2.16 5.83-5.11 13.81-2.56 21.04l.01.01Zm4.51-20.31c.61-1.64 1.7-3.4 2.85-5.27.74-1.19 1.49-2.41 2.17-3.66 1.43-2.67 3.92-5.96 7.64-6.48 3.42-.48 6.79 1.56 9.92 3.69 7.82 5.33 15 10.73 16.89 18.34 2.06 8.28-2.88 16.75-8.12 24.71-1.59 2.42-2.97 4.35-5.13 5.35-4.02 1.86-9-.32-12.89-2.43-6.89-3.73-13.58-8.09-15.89-14.64-2.13-6.03-.11-12.45 2.55-19.62l.01.01Z"></path><path d="M717.13 10.09c-2.88 5.59-5.87 11.37-7.9 17.41-3.79 11.33-3.2 21.87 1.67 29.69 1.91 3.07 4.46 5.72 6.93 8.29l11.64 12.11c4.99 5.19 9.65 9.59 16.1 10.93 1.34.28 2.65.41 3.96.41 8.57 0 16.45-5.62 23.76-11.87 3.79-3.23 8.08-6.9 10.41-11.66 1.5-3.07 2.09-6.39 2.65-9.6.3-1.71.61-3.47 1.06-5.15.71-2.69 1.82-5.4 2.89-8.02 2.06-5.02 4.19-10.21 3.73-15.72-.92-10.93-11.29-18.58-20.95-24.89-1.02-.67-2.06-1.35-3.12-2.03h-3.92c2.03 1.25 4 2.53 5.9 3.78 9.24 6.04 19.17 13.32 20.01 23.32.42 5.01-1.53 9.74-3.58 14.75-1.1 2.68-2.24 5.46-2.98 8.28-.47 1.76-.79 3.57-1.1 5.32-.56 3.21-1.1 6.24-2.47 9.04-2.13 4.37-6.25 7.89-9.89 10.99-8.02 6.85-16.69 12.93-25.94 11.01-5.87-1.22-10.28-5.41-15.02-10.34l-11.64-12.11c-2.4-2.49-4.87-5.07-6.67-7.95-6.11-9.82-3.54-21.7-1.45-27.92 1.98-5.89 4.92-11.6 7.77-17.12 1.68-3.26 3.42-6.63 4.95-10.02.16-.35.34-.69.54-1.03h-2.35c-.03.06-.06.11-.09.17-1.51 3.34-3.24 6.69-4.91 9.92l.01.01Z"></path><path d="m688.45 26.09-.94 27.41c-.3 8.66-.14 16.96 4.99 23.32 2.94 3.64 7.13 6.08 11.19 8.44 1.23.72 2.47 1.44 3.67 2.19 6.29 3.94 11.86 9.09 16.1 14.89 1.26 1.73 2.46 3.57 3.61 5.35 2.93 4.52 5.97 9.2 10.5 12.64 3.41 2.59 7.99 4.09 12.32 4.09s8.05-1.38 10.48-4.49c2.05-2.63 2.57-5.78 3.08-8.84.35-2.1.68-4.08 1.47-5.91 2.18-5.05 7.33-8.03 12.78-11.19 4.62-2.67 9.39-5.44 12.42-9.63 3.32-4.6 3.98-10.1 4.63-15.42.43-3.54.88-7.19 2.11-10.5 1.29-3.48 3.41-6.56 5.65-9.82 1.77-2.58 3.61-5.25 4.97-8.11 4.34-9.09 3.64-20.06-1.83-28.62-3.01-4.71-7.26-8.54-11.8-11.89h-3.59c5.24 3.63 10.28 7.79 13.62 13.02 5.09 7.96 5.74 18.15 1.71 26.6-1.3 2.72-3.08 5.31-4.81 7.83-2.22 3.22-4.51 6.56-5.89 10.28-1.32 3.54-1.78 7.32-2.22 10.98-.64 5.29-1.25 10.29-4.26 14.45-2.77 3.84-7.34 6.49-11.77 9.05-5.51 3.19-11.2 6.49-13.65 12.17-.89 2.06-1.25 4.26-1.61 6.39-.48 2.92-.94 5.69-2.67 7.9-4.17 5.35-14.12 4.4-19.89.02-4.24-3.22-7.04-7.54-10.01-12.11-1.17-1.8-2.38-3.67-3.68-5.44-4.4-6.01-10.17-11.35-16.68-15.43-1.22-.76-2.47-1.5-3.73-2.23-3.89-2.27-7.92-4.61-10.62-7.95-4.68-5.8-4.81-13.68-4.53-21.93l.94-27.41c.25-7.41.52-15.07 2.89-22.23.44-1.33.96-2.65 1.55-3.94h-2.28c-.46 1.08-.88 2.17-1.25 3.28-2.46 7.44-2.73 15.25-2.99 22.81l.02-.02ZM691.85 323.15c-1.25.41-2.57.78-3.93 1.1-.56.13-.91.69-.77 1.25.11.48.54.8 1.01.8.08 0 .16 0 .24-.03 1.42-.33 2.8-.72 4.1-1.15.55-.18.84-.77.66-1.32-.18-.54-.75-.85-1.32-.66l.01.01ZM918.35 282.12c-1.39-.09-2.79-.17-4.19-.23-.54 0-1.06.42-1.09 1-.02.57.42 1.06 1 1.09 1.38.06 2.76.14 4.15.23h.07c.55 0 1.01-.42 1.04-.98.04-.57-.4-1.07-.97-1.11h-.01ZM694.4 246.91c-.57.05-1 .55-.95 1.12.11 1.37.31 2.79.57 4.23.09.5.53.85 1.03.85.06 0 .13 0 .19-.02.57-.11.94-.65.84-1.22-.26-1.37-.44-2.72-.55-4.02-.05-.57-.5-.99-1.12-.95l-.01.01ZM606.95 359.91c-.41-.3-.95-.23-1.3.09h1.39s-.05-.07-.09-.09ZM942.89 281.56c-1.21.36-2.53.65-3.93.85-.57.08-.97.61-.88 1.18.07.52.52.89 1.03.89.05 0 .1 0 .15-.01 1.5-.22 2.92-.53 4.22-.91a1.045 1.045 0 0 0-.6-2h.01ZM930.81 282.83c-1.36-.03-2.74-.08-4.14-.16-.67-.05-1.07.41-1.1.99-.03.57.41 1.06.99 1.1 1.42.08 2.83.13 4.21.16h.02c.57 0 1.03-.45 1.04-1.02a1.04 1.04 0 0 0-1.02-1.06v-.01ZM882.37 291.17l-3.09 2.81a1.043 1.043 0 0 0 .7 1.82c.25 0 .5-.09.7-.27l3.09-2.81c.43-.39.46-1.04.08-1.47-.39-.43-1.05-.47-1.47-.08h-.01ZM825.89 244.55a1.031 1.031 0 0 0 1.34.6c1.45-.55 2.77-1.27 3.91-2.14.46-.35.55-1 .2-1.46-.35-.46-.99-.55-1.46-.2-.98.74-2.12 1.37-3.39 1.85-.54.21-.81.81-.6 1.35ZM707.83 288.43c.55-.16.88-.74.72-1.29-.38-1.35-.82-2.69-1.28-4.04a1.04 1.04 0 0 0-1.33-.64c-.55.19-.83.78-.64 1.33.46 1.31.88 2.61 1.25 3.92a1.044 1.044 0 0 0 1.29.72h-.01ZM893.18 284.27a29.75 29.75 0 0 0-3.92 1.8c-.51.28-.69.91-.41 1.42.19.34.55.54.91.54.17 0 .34-.04.5-.13 1.16-.64 2.38-1.2 3.65-1.68.54-.2.81-.8.61-1.34-.2-.54-.8-.82-1.34-.61ZM818.78 4.91c.12 0 .24-.02.36-.06.54-.2.82-.8.62-1.34-.45-1.23-.73-2.38-.86-3.5h-2.1c.14 1.37.47 2.76 1.01 4.23.15.42.55.68.98.68l-.01-.01ZM905.73 281.87c-1.43.07-2.84.2-4.24.38-.57.08-.97.6-.9 1.17.07.53.52.91 1.04.91h.14c1.34-.18 2.7-.3 4.07-.37.58-.03 1.02-.52.99-1.1-.03-.57-.48-1.01-1.1-.99ZM699.55 263.69c-.49-1.29-.95-2.59-1.39-3.89a1.04 1.04 0 0 0-1.32-.66c-.55.18-.84.77-.66 1.32.44 1.32.91 2.64 1.41 3.97a1.044 1.044 0 0 0 1.35.6c.54-.2.81-.8.61-1.34ZM954.22 276.56c-1.29.55-2.57 1.12-3.84 1.71a1.043 1.043 0 1 0 .88 1.89c1.25-.58 2.52-1.14 3.79-1.69.53-.23.77-.84.55-1.37-.23-.53-.84-.77-1.37-.54h-.01ZM702.65 271.4a1.04 1.04 0 0 0-1.36-.56c-.53.22-.79.83-.56 1.36l1.59 3.85a1.052 1.052 0 0 0 1.37.57c.53-.22.79-.83.57-1.36l-1.6-3.86h-.01ZM781.49 240.99l-4.12-.6c-.63-.1-1.1.31-1.19.88-.09.57.31 1.1.88 1.19 1.38.21 2.75.41 4.14.6.05 0 .1.01.15.01.51 0 .96-.38 1.03-.9.08-.57-.31-1.1-.88-1.18h-.01ZM1036.25 228.7a1.05 1.05 0 0 0 1.45.27c.47-.33.59-.97.27-1.45-.72-1.05-1.56-2.15-2.59-3.39a1.045 1.045 0 0 0-1.6 1.34c.99 1.18 1.8 2.24 2.48 3.23h-.01ZM1011.54 200.62a1.044 1.044 0 1 0 1.56-1.39l-2.79-3.1c-.39-.44-1.05-.46-1.47-.08-.43.39-.46 1.05-.08 1.47l2.79 3.1h-.01ZM1019.9 209.94a1.029 1.029 0 0 0 1.47.08c.43-.39.46-1.04.08-1.47l-2.78-3.1c-.39-.43-1.05-.47-1.47-.08-.43.39-.46 1.04-.08 1.47l2.79 3.1h-.01ZM1028.26 219.25a1.044 1.044 0 1 0 1.56-1.39l-2.79-3.1c-.38-.43-1.05-.47-1.47-.08-.43.39-.46 1.05-.08 1.47l2.78 3.1ZM1033.08 250.67c.21 0 .42-.06.6-.19 1.27-.89 2.4-1.82 3.35-2.77.41-.41.41-1.07 0-1.47-.41-.41-1.07-.41-1.47 0-.87.86-1.9 1.72-3.07 2.54-.47.33-.59.98-.26 1.45.2.29.53.44.86.44h-.01ZM702.51 317.53c-.98.82-2.08 1.6-3.27 2.31-.49.3-.65.94-.35 1.43a1.039 1.039 0 0 0 1.43.36c1.28-.77 2.47-1.61 3.53-2.5.44-.37.5-1.03.13-1.47-.37-.44-1.03-.5-1.47-.13ZM965.91 271.95c-1.32.48-2.62.96-3.93 1.46-.54.2-.81.81-.6 1.34a1.031 1.031 0 0 0 1.34.6c1.3-.49 2.59-.97 3.89-1.45.54-.2.82-.79.63-1.34-.2-.54-.79-.82-1.34-.62l.01.01ZM989.78 264.24l-3.99 1.21c-.55.17-.86.75-.7 1.3.14.45.55.74 1 .74.1 0 .2-.01.3-.04l3.99-1.21c.55-.17.86-.75.7-1.3-.16-.55-.73-.86-1.3-.7ZM1013.69 256.92c-1.32.43-2.64.86-3.96 1.27-.55.17-.86.76-.68 1.31.14.45.55.73.99.73.1 0 .21-.02.31-.05 1.33-.42 2.66-.85 3.98-1.28.55-.18.84-.77.66-1.32-.18-.55-.75-.85-1.32-.67l.02.01ZM1025.35 252.67c-1.25.56-2.54 1.07-3.81 1.55a1.044 1.044 0 1 0 .74 1.95c1.31-.49 2.63-1.02 3.92-1.6.53-.23.76-.85.53-1.38-.23-.53-.85-.76-1.38-.53v.01ZM1001.77 260.65l-4 1.2c-.55.16-.86.75-.7 1.3.13.45.55.74 1 .74.1 0 .2-.01.3-.04l4-1.2c.55-.17.86-.75.7-1.3-.16-.55-.73-.86-1.3-.7ZM1039.33 239.64c-.11.57.26 1.11.83 1.22.07.01.13.02.2.02.49 0 .93-.35 1.02-.85.1-.51.17-1.02.21-1.55.02-.31.03-.61.03-.92 0-.69-.06-1.36-.16-2.03-.09-.57-.6-.94-1.19-.87-.57.09-.96.63-.87 1.19.09.56.14 1.13.14 1.71 0 .25 0 .51-.02.77-.04.45-.09.88-.18 1.31h-.01ZM834.97 235.15c-.35.46-.26 1.11.2 1.46a1.05 1.05 0 0 0 1.46-.2c.23-.3.47-.6.73-.89.57-.64 1.23-1.25 2.02-1.87.45-.35.53-1.01.18-1.46-.36-.45-1.01-.54-1.47-.18-.88.69-1.63 1.39-2.28 2.12-.3.33-.57.67-.84 1.02ZM840.4 176.06a1.04 1.04 0 1 0 1.92-.8c-.55-1.31-1.13-2.59-1.76-3.85-.26-.51-.88-.72-1.4-.47-.52.25-.73.88-.47 1.4.6 1.22 1.17 2.47 1.7 3.73l.01-.01ZM850.57 199.04c.2.31.53.48.88.48a1.047 1.047 0 0 0 .88-1.61c-.75-1.16-1.5-2.31-2.19-3.5-.3-.5-.95-.66-1.43-.37-.5.29-.66.93-.38 1.43.71 1.21 1.47 2.39 2.24 3.58v-.01ZM844.72 187.76c.16.42.55.67.97.67a1.041 1.041 0 0 0 .98-1.42c-.49-1.29-.96-2.59-1.42-3.89-.2-.54-.79-.84-1.33-.64-.55.19-.83.79-.64 1.33.46 1.32.94 2.64 1.44 3.94v.01ZM839.94 340.76c-.03-.57-.59-1.05-1.1-.98-.57.03-1.01.53-.98 1.1.09 1.41.23 2.84.44 4.24.08.52.52.89 1.03.89.05 0 .1 0 .15-.01.57-.08.97-.61.88-1.18-.2-1.34-.34-2.7-.42-4.06ZM838.99 333.53h.12c.53 0 .98-.39 1.03-.93.15-1.35.36-2.7.62-4.04.11-.57-.26-1.11-.82-1.22-.58-.13-1.12.26-1.22.82-.27 1.39-.49 2.8-.65 4.21-.07.57.35 1.09.92 1.15v.01ZM834.64 165.16c.2.31.53.48.88.48a1.037 1.037 0 0 0 .88-1.6c-.75-1.19-1.54-2.35-2.35-3.51a1.04 1.04 0 0 0-1.7 1.2c.8 1.12 1.56 2.26 2.3 3.42l-.01.01ZM806.3 243.94c-1.38-.13-2.76-.27-4.14-.41-.58-.05-1.09.36-1.15.93-.06.57.36 1.09.93 1.15l4.16.42h.1c.53 0 .99-.4 1.04-.94.05-.57-.37-1.08-.94-1.14v-.01ZM793.88 242.61c-1.38-.17-2.75-.33-4.13-.51-.61-.11-1.09.33-1.17.9-.07.57.33 1.09.9 1.17 1.38.18 2.76.34 4.15.51h.12c.52 0 .97-.39 1.04-.92.07-.57-.34-1.09-.91-1.16v.01ZM818.65 244.62c-1.35.06-2.72.04-4.09-.02-.61-.08-1.06.42-1.09.99-.02.58.42 1.06 1 1.09a57.533 57.533 0 0 0 4.26.02c.58-.02 1.03-.51 1-1.09-.02-.57-.43-1.02-1.08-1v.01ZM849.1 225.77c-1.12.63-2.28 1.21-3.66 1.91-.51.26-.61.84-.35 1.35.18.35.57.53.97.53.19 0 .37-.04.54-.12 1.19-.6 2.38-1.21 3.52-1.85.5-.28.68-.92.4-1.42a1.04 1.04 0 0 0-1.42-.4ZM709.99 306.94c-.54-.13-1.12.22-1.25.78-.28 1.2-.68 2.35-1.19 3.43l-.13.28a1.04 1.04 0 0 0 .94 1.49c.39 0 .76-.22.94-.59l.14-.29c.57-1.21 1.01-2.51 1.33-3.85.13-.56-.22-1.12-.78-1.25ZM855.23 206.86c.45.96.83 1.94 1.12 2.9.14.45.55.74 1 .74.1 0 .2-.01.31-.04.55-.17.86-.75.69-1.3-.32-1.05-.73-2.12-1.23-3.18l-.41-.84a1.05 1.05 0 0 0-1.4-.47c-.51.26-.73.88-.47 1.4l.39.8v-.01ZM856.76 217.43c-.23.91-.58 1.77-1.04 2.56-.17.3-.35.58-.55.85a1.04 1.04 0 0 0 1.7 1.2c.23-.33.45-.66.66-1.01.55-.96.97-1.99 1.25-3.09.14-.56-.2-1.12-.75-1.27-.56-.15-1.13.19-1.27.75v.01ZM732.42 231.73l-4.07-.97c-.54-.13-1.12.22-1.25.78-.13.56.22 1.12.78 1.25l4.06.96a1.035 1.035 0 0 0 1.25-.77c.13-.56-.22-1.12-.77-1.25ZM1003.18 191.31a1.044 1.044 0 0 0 1.48.08c.43-.39.46-1.05.08-1.47l-2.79-3.1c-.38-.43-1.05-.47-1.47-.08-.43.38-.46 1.04-.08 1.47l2.79 3.1h-.01ZM872.79 298.68c-1.23.59-2.43.95-3.65 1.1-.57.07-.98.59-.9 1.17.07.53.51.91 1.03.91h.13c1.45-.18 2.85-.6 4.29-1.29.52-.25.74-.87.49-1.39-.24-.52-.87-.74-1.39-.49v-.01ZM744.6 234.46c-1.36-.29-2.71-.58-4.07-.88-.54-.13-1.12.23-1.24.79-.12.56.23 1.12.79 1.24 1.36.3 2.72.59 4.09.88.07.01.15.02.22.02a1.046 1.046 0 0 0 .22-2.07l-.01.02ZM709.32 294.51c-.57.11-.94.66-.83 1.22.28 1.46.48 2.77.6 4.03.06.54.51.94 1.04.94h.11c.57-.06.99-.57.93-1.14-.13-1.32-.34-2.7-.64-4.22-.11-.56-.67-.93-1.22-.83h.01ZM720.08 229.11c-1.51-.21-2.9-.34-4.26-.4-.53 0-1.06.43-1.08 1-.02.57.43 1.06 1 1.08 1.28.05 2.61.17 4.05.38.05 0 .1.01.15.01.51 0 .96-.38 1.04-.9.08-.57-.32-1.1-.89-1.18l-.01.01ZM769.15 239.09c-1.37-.23-2.74-.46-4.1-.69-.6-.11-1.11.28-1.21.85-.1.57.28 1.11.85 1.21 1.37.24 2.75.47 4.12.7.06.01.11.01.17.01.5 0 .94-.36 1.03-.87.09-.57-.29-1.1-.86-1.2v-.01ZM844.17 315.6c-.53-.25-1.14-.04-1.39.48-.62 1.26-1.19 2.58-1.7 3.91a1.041 1.041 0 0 0 .97 1.42c.42 0 .81-.25.97-.67.49-1.27 1.03-2.53 1.63-3.74.25-.52.04-1.14-.48-1.39v-.01ZM849.82 305.45c-.92 1.06-1.82 2.18-2.66 3.33a1.043 1.043 0 0 0 .85 1.66c.32 0 .64-.15.84-.43.8-1.1 1.66-2.17 2.55-3.19.38-.43.33-1.09-.1-1.47-.44-.38-1.09-.34-1.47.1h-.01ZM861.06 298.95h-.42c-.2-.01-.42 0-.62 0-1.17.08-2.35.38-3.5.91a1.043 1.043 0 1 0 .88 1.89c.92-.42 1.85-.67 2.76-.72.16-.01.33-.01.49-.01h.31c.63.1 1.07-.41 1.1-.98.03-.57-.42-1.06-.99-1.09h-.01ZM756.85 236.92c-1.37-.26-2.73-.52-4.09-.79-.56-.13-1.11.26-1.22.82-.11.56.26 1.11.82 1.22 1.36.27 2.73.53 4.1.79.07.01.13.02.2.02.49 0 .93-.35 1.03-.85.11-.56-.26-1.11-.83-1.22l-.01.01ZM842.24 352.75a1.04 1.04 0 0 0-1.32-.66c-.55.18-.84.77-.66 1.32.45 1.34.97 2.68 1.54 3.98a1.033 1.033 0 0 0 1.37.53c.53-.23.77-.85.53-1.38a43.82 43.82 0 0 1-1.47-3.8l.01.01ZM977.8 267.93c-1.33.42-2.65.85-3.98 1.29-.55.18-.84.77-.66 1.32.14.44.55.72.99.72.11 0 .22-.02.33-.05 1.32-.43 2.64-.86 3.96-1.28.55-.18.85-.76.68-1.31-.17-.55-.75-.84-1.31-.68l-.01-.01ZM715.98 115.37a1.038 1.038 0 0 0 1.47-.01c.4-.41.4-1.07 0-1.48-1.01-1-2.04-1.97-3.1-2.89-.42-.38-1.1-.33-1.47.1-.38.43-.33 1.09.1 1.47 1.03.9 2.03 1.83 3 2.8v.01ZM765.02 137.14c.19 0 .39-.05.56-.16 1.08-.68 2.22-1.48 3.49-2.45.46-.35.55-1 .2-1.46a1.05 1.05 0 0 0-1.46-.2c-1.22.93-2.31 1.69-3.34 2.35-.48.31-.63.95-.32 1.44.2.31.53.48.88.48h-.01ZM722.31 122.21c.69.78 1.39 1.56 2.09 2.34a1.044 1.044 0 1 0 1.54-1.41c-.7-.77-1.39-1.55-2.08-2.32l-.7-.78c-.38-.44-1.05-.47-1.47-.09-.43.38-.47 1.04-.09 1.47l.69.78.02.01ZM690.86 102.79c1.35.3 2.7.59 4.05.92a1.035 1.035 0 0 0 1.25-.77c.13-.56-.21-1.12-.77-1.26-1.36-.33-2.73-.63-4.1-.93a1.05 1.05 0 0 0-1.24.8c-.12.56.24 1.12.8 1.24h.01ZM753.27 140.95h.02c1.46-.03 2.93-.2 4.34-.52.56-.13.92-.68.79-1.25-.13-.56-.68-.92-1.25-.79-1.28.29-2.6.45-3.93.47-.57 0-1.03.48-1.02 1.06.01.57.48 1.02 1.04 1.02l.01.01ZM733.54 133.34c.19.14.41.22.64.22a1.046 1.046 0 0 0 .64-1.87 53.05 53.05 0 0 1-3.13-2.63c-.42-.38-1.08-.36-1.47.07-.39.43-.36 1.09.07 1.47 1.07.97 2.16 1.89 3.26 2.74h-.01ZM740.77 137.9c1.32.65 2.66 1.2 3.98 1.65.11.04.22.05.33.05a1.04 1.04 0 0 0 .33-2.03c-1.23-.42-2.49-.94-3.73-1.55-.53-.25-1.14-.04-1.4.48-.25.52-.04 1.14.48 1.4h.01ZM702.73 106.12c.53.21 1.04.44 1.55.67.72.33 1.41.69 2.09 1.07.16.09.34.13.51.13.36 0 .72-.19.91-.53.28-.5.11-1.14-.4-1.42a31.406 31.406 0 0 0-3.89-1.86c-.52-.22-1.14.04-1.36.57-.22.53.04 1.14.57 1.36l.02.01ZM678.61 99.71c1.32.45 2.68.85 4.07 1.21.09.02.18.03.26.03a1.041 1.041 0 0 0 .26-2.05c-1.34-.35-2.65-.73-3.92-1.17-.55-.19-1.14.11-1.32.65-.19.54.1 1.14.65 1.32v.01ZM664.7 67.37c-.55-.09-1.1.31-1.18.88-.21 1.4-.4 2.79-.55 4.17-.07.57.35 1.09.92 1.15h.11c.53 0 .98-.4 1.04-.93.15-1.36.34-2.73.54-4.1.09-.57-.31-1.1-.88-1.18v.01ZM666.15 54.96c-.54 0-.98.41-1.04.94v.08c-.07 1.33-.21 2.69-.38 4.05-.07.57.33 1.09.91 1.16h.13c.52 0 .97-.39 1.04-.91.17-1.4.31-2.78.39-4.15V56c0-.58-.47-1.04-1.04-1.04h-.01ZM670.9 95.87c.18.13.4.2.61.2.32 0 .64-.15.85-.43.33-.47.23-1.12-.24-1.46a18.02 18.02 0 0 1-2.93-2.63c-.39-.44-1.04-.46-1.47-.09-.43.38-.47 1.04-.09 1.47.95 1.08 2.05 2.06 3.26 2.93l.01.01ZM664.03 36.34c.06 0 .12 0 .18-.02.57-.1.95-.64.84-1.21-.24-1.37-.49-2.73-.71-4.1-.09-.57-.66-.95-1.2-.86-.57.09-.95.63-.86 1.2.23 1.37.48 2.75.72 4.12.09.51.53.86 1.03.86v.01ZM664.81 80.78c-.05-.57-.48-1.01-1.13-.95-.57.05-1 .56-.95 1.13.14 1.55.39 2.95.75 4.29.13.46.55.77 1.01.77a1.049 1.049 0 0 0 1.01-1.32c-.33-1.22-.56-2.5-.69-3.92ZM664.38 43.67c.2 1.36.37 2.73.5 4.09.05.54.5.94 1.04.94h.1c.57-.06.99-.57.94-1.14-.14-1.4-.31-2.79-.52-4.19-.08-.57-.57-.97-1.18-.88-.57.08-.97.61-.88 1.18ZM819.92 51.14c.16.09.33.13.51.13.37 0 .72-.19.91-.54.68-1.22 1.34-2.46 1.98-3.71.26-.51.06-1.14-.46-1.4a1.04 1.04 0 0 0-1.4.45c-.63 1.23-1.28 2.45-1.95 3.65-.28.5-.1 1.14.41 1.42ZM815.91 141.66c-.4.42-.39 1.08.02 1.47 1 .96 1.98 1.93 2.95 2.91.2.21.47.31.74.31s.53-.1.73-.3c.41-.41.41-1.07 0-1.47-.99-.99-1.98-1.97-2.99-2.94a1.04 1.04 0 0 0-1.47.02h.02ZM824.75 15.89a1.048 1.048 0 0 0 .92-1.55c-.65-1.17-1.35-2.32-2.14-3.63l-.89.54-.8.69c.68 1.13 1.37 2.26 2 3.41.19.34.55.54.91.54ZM828.21 27.77h.02c.57 0 1.04-.48 1.03-1.06-.02-1.47-.18-2.93-.45-4.33a1.03 1.03 0 0 0-1.23-.82c-.57.11-.93.66-.82 1.23.25 1.28.39 2.61.41 3.96 0 .57.47 1.03 1.04 1.03v-.01ZM825.44 39.91c.12.04.24.06.37.06.42 0 .82-.26.98-.68.51-1.38.96-2.74 1.31-4.06.15-.56-.18-1.13-.73-1.28-.56-.14-1.12.18-1.28.73-.34 1.25-.76 2.56-1.25 3.88-.2.54.07 1.14.61 1.34l-.01.01ZM824.67 150.61c-.43.38-.47 1.04-.09 1.47.92 1.03 1.82 2.07 2.7 3.13.21.25.51.37.8.37.24 0 .47-.08.67-.24.44-.37.5-1.03.13-1.47-.9-1.07-1.81-2.13-2.75-3.18-.39-.43-1.06-.47-1.47-.08h.01ZM813.97 62.15c.15.07.3.11.46.11.39 0 .76-.22.94-.59.61-1.24 1.24-2.46 1.89-3.67.27-.51.09-1.14-.42-1.41-.5-.27-1.14-.08-1.41.42-.66 1.23-1.32 2.48-1.93 3.75-.25.52-.04 1.14.48 1.39h-.01ZM809.87 73.94c.08.02.15.02.23.02.48 0 .91-.33 1.02-.81.29-1.27.65-2.59 1.1-3.91a1.04 1.04 0 0 0-.66-1.32c-.55-.17-1.14.11-1.32.66-.46 1.4-.85 2.78-1.15 4.12-.13.56.23 1.12.79 1.25l-.01-.01ZM800.23 128.93l.27.24c.2.18.44.27.69.27.28 0 .57-.12.78-.35.38-.43.35-1.09-.09-1.47l-.29-.26c-.97-.84-1.95-1.7-2.99-2.47a1.06 1.06 0 0 0-1.46.22c-.34.46-.24 1.12.22 1.46.99.74 1.94 1.55 2.86 2.36h.01ZM786.17 124.17c.07 0 .14 0 .21-.02 1.08-.22 2.13-.34 3.14-.34.26.04.49 0 .74.02.69.09 1.07-.41 1.1-.98.03-.57-.41-1.07-.99-1.1-.29-.02-.54 0-.86-.02-1.14 0-2.34.13-3.56.38-.56.12-.92.67-.81 1.23.1.49.54.83 1.02.83h.01ZM815.95 96.54a1.044 1.044 0 0 0 1.47-.07c.39-.42.36-1.08-.06-1.48-1-.92-1.91-1.91-2.71-2.93-.35-.46-1.01-.54-1.46-.19-.46.35-.54 1.01-.18 1.46.86 1.11 1.85 2.19 2.94 3.19v.02ZM809.86 137.46a1.044 1.044 0 0 0 1.47-.07c.39-.43.35-1.09-.07-1.47-1.03-.93-2.07-1.87-3.11-2.79-.42-.38-1.09-.35-1.47.09-.38.43-.35 1.09.09 1.47 1.03.92 2.07 1.85 3.1 2.78l-.01-.01ZM775.04 129.53c.24 0 .48-.07.68-.22 1.08-.8 2.18-1.53 3.27-2.17.5-.29.66-.93.37-1.43-.29-.5-.92-.67-1.43-.37-1.16.67-2.33 1.45-3.42 2.27-.03.02-.15.11-.18.14-.44.36-.46.96-.12 1.41.2.25.51.38.82.38l.01-.01ZM810.11 86.36a1.049 1.049 0 0 0 1.01-1.32c-.34-1.25-.57-2.57-.67-3.91-.04-.57-.52-1.04-1.12-.96-.57.04-1.01.54-.96 1.12.11 1.47.35 2.92.73 4.3.13.46.55.77 1.01.77ZM654.91 326.69h-.06c-1.41.08-2.81.17-4.19.28-.57.05-1 .55-.95 1.12.05.55.5.96 1.04.96h.09c1.37-.11 2.75-.2 4.14-.28.57-.03 1.01-.52.99-1.1-.03-.56-.49-.99-1.04-.99l-.02.01ZM893.66 126.87c1.28.54 2.55 1.08 3.83 1.63a1.04 1.04 0 0 0 1.38-.54c.23-.53-.02-1.14-.54-1.37-1.28-.55-2.56-1.1-3.85-1.64-.53-.22-1.15.03-1.36.56-.22.53.03 1.14.56 1.36h-.02ZM882.09 122.19c1.29.5 2.58 1.01 3.87 1.52.13.05.26.07.39.07.42 0 .81-.25.97-.66.21-.54-.05-1.14-.58-1.36-1.3-.52-2.6-1.03-3.89-1.53-.54-.21-1.14.06-1.35.6-.21.54.06 1.14.6 1.35l-.01.01ZM905.09 131.87c1.26.58 2.52 1.16 3.77 1.76.15.07.3.1.45.1.39 0 .77-.22.94-.6.25-.52.02-1.14-.49-1.39-1.26-.6-2.53-1.18-3.8-1.76-.53-.24-1.14-.01-1.39.51-.24.52 0 1.14.51 1.38h.01ZM858.56 113.81c1.32.43 2.64.86 3.96 1.3.11.04.22.06.33.06a1.04 1.04 0 0 0 .33-2.03c-1.32-.44-2.64-.88-3.97-1.31-.55-.17-1.14.13-1.31.67-.18.55.12 1.14.67 1.31h-.01ZM694.59 240.65c.07.02.14.02.21.02.48 0 .92-.34 1.02-.83l.06-.32c.2-1.09.67-2.1 1.4-3.01.36-.45.28-1.11-.16-1.47-.44-.36-1.1-.28-1.47.16-.94 1.18-1.56 2.5-1.82 3.93 0 0-.04.27-.05.27-.11.56.24 1.12.81 1.23v.02ZM916.31 137.3c1.23.64 2.45 1.28 3.66 1.95.16.09.33.13.5.13.37 0 .73-.2.92-.54.27-.51.09-1.14-.42-1.42-1.23-.67-2.46-1.33-3.71-1.97-.5-.26-1.14-.07-1.4.45-.26.51-.07 1.14.45 1.41v-.01ZM870.38 117.83c1.31.47 2.62.94 3.92 1.42a1.054 1.054 0 0 0 1.34-.62c.2-.54-.08-1.14-.62-1.34-1.31-.48-2.62-.95-3.93-1.42-.57-.21-1.14.09-1.33.63-.2.54.09 1.14.63 1.33h-.01ZM927.15 143.4c.95.58 1.89 1.18 2.82 1.78l.47.31.77-.74.37-1.01-.46-.31c-.95-.62-1.91-1.22-2.88-1.82a1.03 1.03 0 0 0-1.43.35c-.3.49-.15 1.13.34 1.43v.01ZM703.45 232.55c.11 0 .22-.02.33-.06 1.19-.41 2.51-.75 3.9-1.02.57-.11.93-.66.82-1.22-.11-.56-.66-.94-1.22-.82-1.49.29-2.89.66-4.17 1.09-.55.19-.84.78-.65 1.32.15.43.55.71.99.71ZM960.09 161.57c1.21.36 2.42.72 3.64 1.06l.38.11a1.047 1.047 0 0 0 1.29-.71c.16-.55-.16-1.13-.71-1.29l-.38-.11c-1.21-.35-2.41-.69-3.61-1.05a1.045 1.045 0 0 0-.6 2l-.01-.01ZM986.07 173.26a1.041 1.041 0 0 0 1.47-.12c.37-.44.32-1.1-.12-1.47-1.12-.95-2.25-1.84-3.35-2.63a1.03 1.03 0 0 0-1.45.24c-.33.47-.23 1.12.24 1.45 1.11.79 2.18 1.64 3.21 2.52v.01ZM972.02 165.2c1.29.46 2.56.95 3.81 1.5a1.033 1.033 0 0 0 1.37-.53c.23-.53 0-1.14-.53-1.38a54 54 0 0 0-3.95-1.56c-.57-.2-1.14.09-1.33.64-.2.54.09 1.14.63 1.33ZM948.28 156.93c1.25.65 2.53 1.26 3.84 1.83a1.056 1.056 0 0 0 1.37-.55c.23-.53-.02-1.14-.55-1.37a54.48 54.48 0 0 1-3.7-1.76c-.5-.26-1.13-.07-1.41.44-.26.51-.07 1.14.44 1.41h.01ZM941.02 152.63c.18.11.38.17.57.17.34 0 .67-.17.87-.47.32-.48.18-1.13-.3-1.44-1.16-.76-2.31-1.53-3.45-2.31-.47-.33-1.12-.2-1.45.27-.33.48-.2 1.12.27 1.45 1.15.79 2.31 1.57 3.48 2.33h.01ZM613.69 349.36c-.48-.31-1.12-.17-1.44.32-.7 1.1-1.39 2.21-2.08 3.32l-.14.23a1.053 1.053 0 0 0 .89 1.6c.35 0 .69-.18.89-.49l.14-.23c.68-1.1 1.37-2.21 2.07-3.3.31-.49.17-1.13-.32-1.44l-.01-.01ZM846.64 110.11c1.33.39 2.66.79 3.98 1.2.1.03.2.04.31.04.45 0 .86-.29 1-.74a1.04 1.04 0 0 0-.69-1.3c-1.33-.41-2.67-.81-4.01-1.2-.54-.15-1.13.15-1.3.71-.16.55.15 1.13.71 1.3v-.01ZM834.62 106.46c1.32.45 2.66.88 4 1.29.1.03.2.05.31.05.44 0 .86-.29 1-.74a1.04 1.04 0 0 0-.69-1.3c-1.32-.41-2.64-.83-3.94-1.27-.54-.17-1.14.11-1.32.65-.18.55.11 1.14.66 1.32h-.02ZM668.34.34c.28 0 .56-.12.76-.34h-1.5c.05.05.08.11.14.15.18.13.4.19.6.19ZM662.24 23.96h.08c.57-.04 1.01-.55.96-1.12-.1-1.36-.17-2.73-.18-4.09 0-.57-.47-1.04-1.04-1.04-.57 0-1.04.47-1.03 1.05 0 1.41.07 2.83.18 4.24.04.55.5.96 1.04.96h-.01ZM827.18 103.49c.4 0 .77-.23.95-.61.24-.53 0-1.14-.52-1.38a52.02 52.02 0 0 1-3.66-1.83 1.04 1.04 0 0 0-1.42.41c-.28.51-.09 1.14.41 1.42 1.23.68 2.5 1.31 3.81 1.9.14.06.29.09.43.09ZM662.61 11.48a1.035 1.035 0 0 0 1.25-.77c.29-1.22.72-2.49 1.27-3.78.23-.53-.02-1.14-.55-1.37-.53-.24-1.15.01-1.37.55-.6 1.4-1.07 2.78-1.39 4.11-.13.56.21 1.12.77 1.26h.02ZM630.13 331.89c-1.3.64-2.57 1.34-3.74 2.1-.48.31-.62.96-.31 1.44.2.31.53.48.88.48a1 1 0 0 0 .57-.17c1.1-.71 2.29-1.38 3.52-1.97.52-.25.73-.88.48-1.4-.25-.52-.89-.73-1.39-.48h-.01ZM994.83 182a1.044 1.044 0 0 0 1.47.07c.43-.39.46-1.05.07-1.47-.94-1.03-1.89-2.07-2.85-3.08-.4-.42-1.06-.43-1.47-.04-.42.4-.44 1.05-.04 1.47.95 1 1.89 2.02 2.82 3.04v.01ZM667.39 326.26l-4.17.12c-.57.02-.99.49-.98 1.07.01.57.51 1.01 1.08 1.01h.03l4.11-.11c.57-.02 1.03-.5 1.01-1.08-.02-.58-.44-1.02-1.08-1.01ZM642.29 328.05c-1.4.26-2.78.56-4.14.92-.56.14-.89.71-.75 1.27a1.054 1.054 0 0 0 1.27.75c1.31-.34 2.64-.64 4-.89.57-.1.94-.65.84-1.21a1.03 1.03 0 0 0-1.22-.83v-.01ZM679.82 325.55c-1.36.14-2.74.25-4.12.34-.57.04-1.01.54-.97 1.11.04.55.49.97 1.04.97h.07c1.4-.1 2.8-.21 4.19-.35.57-.06.99-.57.93-1.14-.06-.57-.51-.99-1.14-.93ZM619.82 339.49c-.92.98-1.82 2.04-2.77 3.24-.36.45-.28 1.11.18 1.46.19.15.42.22.64.22.31 0 .61-.14.82-.4.91-1.15 1.77-2.17 2.65-3.1.39-.42.37-1.08-.05-1.47a1.05 1.05 0 0 0-1.47.04v.01Z"></path><path d="M677.23 354.41c1.27-.11 2.54-.16 3.82-.16 6.06 0 12.19 1.11 18.15 2.19 8.45 1.53 17.18 3.12 25.77 1.59 15.1-2.68 27.27-15.83 27.72-29.96.24-7.69-2.59-15.02-5.32-22.11-2.14-5.56-4.36-11.3-5.04-17.13-.59-5.03.17-9.16 2.27-12.29 2.16-3.23 6.76-5.95 11.29-4.88 2.61.61 4.69 2.28 6.89 4.05 1.4 1.13 2.84 2.29 4.47 3.2 2.01 1.12 4.22 1.8 6.36 2.46 1.18.36 2.35.73 3.5 1.16 7.61 2.91 14.07 9.23 19.19 18.79 7.17 13.42 9.93 28.95 7.76 43.75-.28 1.88-.67 4.04-1.87 5.73-2.79 3.93-9.14 4.47-14.21 3.26-2.35-.56-4.68-1.43-6.94-2.26-2.92-1.08-5.93-2.2-9.12-2.73-10.32-1.71-22.23 3.18-25.03 10.26-.09.22-.15.44-.24.65h2.23c2.52-6.09 13.5-10.39 22.69-8.86 2.99.5 5.78 1.53 8.73 2.62 2.31.86 4.71 1.75 7.19 2.34 5.32 1.27 12.8.96 16.39-4.08 1.47-2.07 1.92-4.51 2.23-6.63 2.24-15.24-.6-31.23-7.98-45.04-5.37-10.02-12.19-16.67-20.29-19.76-1.18-.45-2.4-.83-3.63-1.21-2.13-.66-4.14-1.28-5.96-2.29-1.47-.82-2.85-1.93-4.18-3-2.29-1.84-4.65-3.74-7.72-4.46-4.83-1.13-10.5 1.29-13.49 5.75-2.38 3.55-3.25 8.16-2.6 13.69.71 6.08 2.98 11.96 5.17 17.64 2.78 7.21 5.41 14.03 5.18 21.3-.41 13.18-11.83 25.46-26 27.97-8.24 1.46-16.77-.09-25.03-1.59-7.35-1.34-14.96-2.72-22.53-2.06-7.4.64-14.72 3.18-22.11 7.67h4.2c6.05-3.22 12.05-5.07 18.09-5.59v.02Z"></path><path d="M783.27 338.83c.57 0 1.15-.05 1.75-.17 2.53-.5 4.84-2.16 6.33-4.56 1.14-1.84 1.81-4.05 2.12-6.94.7-6.74-.88-13.71-4.48-19.61-2.64-4.33-5.99-7.09-9.71-7.98-2.89-.69-7.22-.42-10.32 1.76-2.11 1.47-3.38 3.64-3.67 6.27-1 8.8 1.69 17.93 7.39 25.05 1.58 1.97 5.55 6.19 10.59 6.19v-.01Zm-15.91-31c.24-2.05 1.18-3.66 2.8-4.8 2.56-1.79 6.27-2 8.64-1.44 3.99.95 6.77 4.35 8.4 7.03 3.36 5.52 4.84 12.03 4.18 18.31-.27 2.56-.84 4.49-1.82 6.05-1.19 1.91-2.99 3.23-4.96 3.62-4.78.93-8.79-3.38-10.31-5.27-5.35-6.69-7.89-15.26-6.95-23.51l.02.01Z"></path><path d="M668.99 340.77c2.34-.25 4.76-.35 7.2-.35 3.76 0 7.58.22 11.33.44 12.16.71 24.72 1.45 34.17-5.63 9.08-6.81 12.53-19.52 9.22-34-1.2-5.24-3.06-10.38-4.87-15.36-2.22-6.13-4.52-12.47-5.52-18.91-.99-6.32.1-14.08 6.12-16.87 4.4-2.04 9.86-.72 15.07.79l47.31 13.84c17.34 5.07 38.92 11.39 51.6-.19 1.97-1.8 3.54-3.91 5.07-5.94 1.75-2.34 3.41-4.54 5.59-6.32 3.58-2.9 8.38-4.43 13.01-5.9 5.36-1.7 10.9-3.46 14.83-7.37 7.44-7.39 5.66-19.08 1.88-26.84-1.9-3.91-4.37-7.6-6.75-11.18-2.7-4.05-5.5-8.23-7.41-12.67-1.74-4.05-2.8-8.42-3.82-12.65-1.03-4.28-2.09-8.7-3.88-12.88-3.24-7.59-8.99-14.41-16.17-19.21-.93-.62-1.89-1.21-2.84-1.81-2.91-1.8-5.65-3.5-7.61-5.92-1.47-1.83-2.22-4.28-1.96-6.38.13-1.05.59-2.53 2.01-3.6 2.28-1.72 5.7-1.57 8.76-1.2 20.36 2.48 38.42 11.38 58.23 21.89 26.27 13.93 60.52 32.72 92.52 54.54 7.73 5.27 15.05 10.61 19.6 17.87 4.12 6.58 5.85 16.36.43 23.35-4.53 5.85-12.63 8.36-21.23 10.62-24.78 6.5-50.37 13.23-76.61 11.96l-2.81-.15c-13.11-.69-27.93-1.48-35.47 8.28-.92 1.19-1.67 2.49-2.4 3.75-1.36 2.35-2.65 4.58-4.86 5.92-2.76 1.68-6.19 1.59-9.87 1.48-2.05-.05-4.15-.11-6.18.15-11.92 1.56-18.32 13.34-22.57 23.43-7.76 18.46-13.46 37.52-3.15 52.25h2.59c-.08-.1-.17-.2-.25-.31-10.61-14.01-4.95-32.86 2.73-51.14 4.28-10.17 10.1-20.76 20.91-22.17 1.87-.25 3.9-.19 5.86-.13 3.78.11 7.72.21 11.01-1.78 2.66-1.62 4.15-4.18 5.59-6.66.73-1.26 1.41-2.44 2.25-3.52 6.87-8.9 21.1-8.14 33.71-7.47l2.82.14c26.47 1.29 52.3-5.47 77.23-12.02 8.96-2.35 17.42-4.99 22.35-11.35 6.04-7.79 4.2-18.54-.31-25.74-4.76-7.6-12.27-13.08-20.19-18.48-32.09-21.89-66.41-40.71-92.72-54.66-19.27-10.22-38.27-19.6-58.96-22.12-3.47-.42-7.39-.56-10.27 1.6-1.59 1.2-2.57 2.93-2.82 5.01-.33 2.69.57 5.66 2.41 7.95 2.17 2.7 5.2 4.57 8.13 6.39.94.58 1.88 1.16 2.79 1.77 6.85 4.57 12.32 11.07 15.41 18.29 1.72 4.02 2.76 8.35 3.77 12.55 1.04 4.31 2.11 8.77 3.93 12.98 1.98 4.61 4.84 8.88 7.59 13.01 2.35 3.51 4.77 7.15 6.62 10.93 3.48 7.15 5.19 17.84-1.47 24.45-3.58 3.55-8.64 5.16-14 6.86-4.82 1.53-9.81 3.11-13.69 6.27-2.39 1.94-4.2 4.36-5.95 6.69-1.54 2.05-2.99 3.99-4.81 5.65-11.82 10.78-32.77 4.65-49.6-.27l-47.31-13.84c-5.59-1.64-11.47-3.04-16.53-.68-7.07 3.28-8.4 12.01-7.3 19.08 1.04 6.64 3.37 13.08 5.63 19.3 1.78 4.92 3.62 10 4.79 15.12 1.17 5.11 4.02 22.52-8.43 31.86-8.83 6.63-20.48 5.94-32.79 5.22-6.27-.37-12.76-.75-18.87-.09-15.98 1.73-29.06 10.32-41.31 21.31h3.15c11.47-9.99 23.71-17.65 38.38-19.23h-.04Z"></path><path d="M899.69 203.65c1.76 5.31 1.46 11.09 1.17 16.68-.11 2.06-.22 4.13-.23 6.18-.04 7.17 1.53 16.78 9.3 21.78 3.69 2.38 8.16 3.27 12.44 3.88 5.71.81 11.47 1.21 17.24 1.21 12.65 0 25.28-1.94 37.23-5.76 5.51-1.76 12.25-4.48 15.57-9.97 3.28-5.41 2.51-12.97-1.96-19.26-3.96-5.57-10.05-9.66-15.41-13.27l-47.62-32.01c-8.93-6.01-18.16-12.21-28.38-16.72-5.88-2.6-11.21-2.66-15-.19-2.85 1.86-4.55 4.97-4.55 8.34 0 10.05 6.45 18.62 12.15 26.18 3.45 4.59 6.71 8.92 8.05 12.94v-.01Zm-14.51-45.71c1.5-.98 3.33-1.47 5.39-1.47 2.3 0 4.88.61 7.63 1.82 10.05 4.43 19.2 10.59 28.05 16.54l47.62 32.01c5.22 3.51 11.13 7.48 14.87 12.75 3.98 5.61 4.72 12.27 1.87 16.98-2.96 4.89-9.26 7.41-14.42 9.06-17.11 5.47-35.63 7.01-53.54 4.47-4.04-.57-8.25-1.4-11.6-3.56-6.97-4.49-8.39-13.36-8.35-20.01.01-2.02.12-4.05.22-6.08.31-5.79.62-11.77-1.27-17.45-1.44-4.35-4.8-8.81-8.36-13.54-5.5-7.3-11.73-15.58-11.73-24.93 0-2.66 1.35-5.12 3.6-6.59h.02Z"></path><path d="M929.98 232.06c4.32 2.56 9.27 3.38 14.55 3.38 3.64 0 7.44-.39 11.31-.86 3.72-.45 8.18-1.41 9.68-4.85.74-1.68.51-3.47.23-4.84-2.03-9.92-13.04-18.65-21.93-24.23-7.35-4.62-17.54-7.1-22.78-2.93-4.39 3.49-4.75 10.61-1.09 21.16 1.44 4.15 4.35 9.8 10.02 13.17h.01Zm-7.64-32.7c1.49-1.18 3.53-1.69 5.83-1.69 4.58 0 10.18 2.01 14.55 4.76 8.54 5.36 19.11 13.69 20.99 22.89.22 1.07.4 2.44-.1 3.58-1.08 2.48-4.86 3.23-8.03 3.62-9.08 1.1-17.8 1.75-24.54-2.25-5.14-3.04-7.79-8.24-9.12-12.06-3.3-9.49-3.15-16.01.41-18.84l.01-.01ZM376.59 49.17c-.42 6.06-.22 12.89 4.42 17.67 9.55 9.83 27.17 1.97 36.63-2.25 10.38-4.63 25.13-8.87 36.55-2.77 2.8 1.49 5.45 3.62 8.01 5.68 5.17 4.15 10.53 8.43 17.43 7.81 2.04-.19 3.96-.82 5.8-1.43 1.08-.36 2.16-.71 3.26-.98 3.01-.72 6.12-.74 9.41-.76 3.12-.01 6.36-.03 9.49-.72 10.6-2.33 18.4-11.44 23.84-27.85l.35-1.07c3.61-10.89 7.69-23.23 18.45-28.68 12.69-6.42 28.84 0 37.13 9.9 8.69 10.4 11.2 23.96 12.61 37.05.2 1.81.37 3.63.55 5.46 1.13 11.44 2.3 23.27 7.36 33.98 6.85 14.5 20.77 25.91 37.22 30.54 3.49.98 7.14 1.69 10.67 2.37 7 1.35 14.25 2.75 20.18 6.36 4.01 2.45 7.33 5.87 10.54 9.18 1.26 1.31 2.53 2.61 3.84 3.87 9.94 9.53 23.1 16.53 37.05 19.71l1.1.25c16.74 3.75 24.89 7.44 24.22 10.95-1.92 10.16-25.63 10.75-44.69 11.23-9.86.25-19.17.48-25.1 1.89-10.19 2.42-20.8 5.49-29.39 11.47-9.59 6.68-15.11 16.55-14.39 25.76.47 6.01 3.39 11.48 6.21 16.77.85 1.59 1.7 3.18 2.48 4.79 2.9 5.94 5.47 14.37 1.21 20.77-4.58 6.87-13.75 7.97-23.46 9.13-4.27.51-8.69 1.03-12.7 2.1-16.12 4.28-26.03 17.65-35.6 30.59-9.25 12.49-18.81 25.42-33.92 29.77-3.28.94-6.95 1.56-10.5 2.16-9.03 1.52-18.34 3.1-22.77 10.14h2.55c4.21-5.31 12.17-6.67 20.57-8.08 3.61-.61 7.35-1.24 10.73-2.21 15.79-4.55 25.56-17.76 35.02-30.53 9.79-13.23 19.04-25.73 34.47-29.82 3.87-1.03 8.21-1.54 12.41-2.04 9.75-1.16 19.84-2.37 24.95-10.04 4.81-7.22 2.07-16.41-1.07-22.84-.79-1.63-1.65-3.24-2.51-4.85-2.72-5.1-5.54-10.37-5.97-15.95-.66-8.47 4.52-17.63 13.51-23.88 8.31-5.78 18.7-8.77 28.68-11.15 5.72-1.36 14.92-1.59 24.67-1.83 20.84-.52 44.46-1.11 46.69-12.93 1.21-6.41-12.37-10.36-25.82-13.38l-1.09-.24c-13.59-3.1-26.4-9.91-36.08-19.19-1.29-1.24-2.54-2.53-3.79-3.81-3.3-3.4-6.71-6.92-10.95-9.51-6.25-3.81-13.68-5.24-20.87-6.63-3.49-.67-7.1-1.37-10.5-2.33-15.88-4.47-29.3-15.47-35.9-29.42-4.9-10.37-6.05-22.02-7.16-33.29-.18-1.83-.36-3.66-.55-5.48-1.45-13.42-4.03-27.33-13.09-38.16C580.17 11.88 562.94 5.11 549.3 12c-11.53 5.83-15.75 18.61-19.49 29.88l-.35 1.07c-5.19 15.65-12.49 24.31-22.31 26.47-2.91.64-6.03.66-9.05.67-3.26.02-6.63.03-9.88.81-1.16.28-2.29.65-3.43 1.03-1.82.6-3.54 1.17-5.34 1.33-6.18.56-10.87-3.29-15.94-7.36-2.64-2.12-5.36-4.31-8.33-5.89-12.15-6.48-27.58-2.11-38.38 2.71-13.38 5.96-26.79 10.43-34.29 2.7-4.07-4.19-4.22-10.48-3.84-16.07 1.01-14.79 4.59-29.26 10.64-43.02.72-1.64 1.85-3.93 3.38-6.29h-2.47c-1.24 2.06-2.18 4-2.82 5.45-6.15 13.98-9.78 28.68-10.81 43.71v-.03Z"></path><path d="M1169.96 78.82c-5.17-2.86-9.77-6.67-14.21-10.36-2.59-2.14-5.26-4.35-8.03-6.38-8.16-5.96-17.47-10.5-26.47-14.88-17.78-8.67-37.93-18.5-59.6-20-8.42-.58-16.93.1-25.16.76-3.86.31-7.85.63-11.77.82-15.67.73-31.34-.61-46.58-3.99-4.46-.99-8.97-2.18-13.34-3.33-10.88-2.86-22.13-5.82-33.65-6.05-15.71-.27-34.26 6.01-40.21 20.8-5.76 14.35 3.22 29.93 14.69 39 8.98 7.1 19.89 11.78 30.44 16.31 3.44 1.48 6.88 2.95 10.25 4.51 17.79 8.21 33.78 18.69 47.52 31.16 14.72 13.36 26.95 29.14 38.77 44.4 7.1 9.17 14.31 17.23 21.28 25.03 6.95 7.77 14.14 15.81 21.2 24.92.87 1.13 1.98 2.46 3.21 3.94 5.26 6.35 13.22 15.94 12.58 21.73-1.55 13.89-26.66 24.98-53.25 36.72-4.68 2.07-9.4 4.15-14.03 6.27-10.11 4.63-21.71 8.98-33.98 13.59-18.54 6.96-37.72 14.15-52.47 22.71-8.86 5.14-16.47 10.02-19.93 17.81-2.21 4.97-2.3 10.29-1.53 15.68h2.11c-.76-5.18-.72-10.23 1.33-14.83 3.21-7.22 10.54-11.91 19.07-16.85 14.61-8.47 33.7-15.63 52.16-22.56 12.31-4.62 23.94-8.99 34.12-13.64 4.62-2.11 9.33-4.19 14-6.26 27.15-11.99 52.8-23.32 54.47-38.39.75-6.68-7.23-16.29-13.05-23.3-1.21-1.45-2.3-2.77-3.16-3.88-7.1-9.18-14.32-17.24-21.29-25.04-6.95-7.77-14.13-15.8-21.19-24.91-11.88-15.33-24.15-31.19-39.01-44.67-13.9-12.62-30.07-23.22-48.05-31.51-3.39-1.56-6.85-3.05-10.3-4.53-10.43-4.47-21.21-9.1-29.96-16.02-10.86-8.59-19.42-23.24-14.05-36.59 5.55-13.8 23.7-19.81 38.23-19.5 11.27.22 22.4 3.15 33.16 5.98 4.38 1.15 8.92 2.35 13.41 3.35 15.42 3.43 31.28 4.78 47.13 4.04 3.95-.19 7.96-.51 11.83-.82 8.15-.66 16.59-1.34 24.85-.76 21.27 1.48 41.22 11.21 58.83 19.79 8.92 4.35 18.14 8.85 26.15 14.7 2.73 1.99 5.37 4.18 7.94 6.3 4.52 3.74 9.2 7.61 14.53 10.57 5.54 3.07 11.72 5.12 17.69 7.1 4.59 1.52 9.28 3.09 13.67 5.12v-2.3c-4.23-1.88-8.67-3.36-13.01-4.8-5.89-1.95-11.97-3.97-17.34-6.95v-.01ZM435.52 6.4c-3.01 1.1-6.3.57-9.81 0-1.6-.26-3.26-.53-4.89-.63-9.34-.57-18.78 5.05-22.05 13.08-3.29 8.08-.12 18.08 7.37 23.26 8.01 5.53 18.51 5.28 28.69 5.02 10.65-.26 20.7-.51 28 5.31.88.7 1.69 1.48 2.5 2.25 1.42 1.36 2.89 2.77 4.72 3.8 4.71 2.66 10.79 2.21 15.22 1.88 8.25-.61 35.19-3.92 35.59-20.94.09-4.06-1.56-8-3.15-11.81-2.09-4.98-4.05-9.68-1.93-14.06 2.93-6.03 10.76-6.86 19.05-7.74 2.99-.32 6.09-.65 8.9-1.25 4.15-.89 7.91-2.53 11.44-4.58h-4.44c-2.34 1.1-4.8 1.98-7.43 2.54-2.71.58-5.75.9-8.69 1.22-8.49.9-17.27 1.83-20.7 8.9-2.54 5.22-.3 10.59 1.88 15.78 1.51 3.61 3.07 7.34 2.99 10.96-.35 15.26-25.85 18.33-33.66 18.9-5.4.4-10.2.55-14.04-1.62-1.6-.9-2.92-2.16-4.31-3.49-.86-.82-1.71-1.64-2.64-2.38-7.9-6.3-18.83-6.04-29.36-5.77-9.83.24-20.01.5-27.45-4.65-6.71-4.64-9.56-13.57-6.63-20.76 2.95-7.24 11.46-12.31 19.99-11.79 1.54.1 3.14.36 4.69.61 3.61.59 7.33 1.2 10.86-.1 4.07-1.48 6.55-5.04 8.55-8.36h-2.45c-1.7 2.67-3.79 5.29-6.81 6.4v.02Z"></path><path d="M865.52 18.85c-.56 2.87-.48 5.78-.4 8.6.07 2.69.14 5.23-.29 7.75-.54 3.15-1.89 6.28-3.19 9.3-1.96 4.56-3.99 9.27-3.44 14.3 1.01 9.35 10.02 15.55 19.6 20.85 12.82 7.09 25.88 15 38.52 22.65 18.28 11.07 37.19 22.52 56.14 32 27.95 13.98 46.34 36.12 65.8 59.56 7.61 9.16 15.47 18.63 23.96 27.59 4.45 4.69 9.48 10.01 10.94 16.43 2.08 9.17-3.76 17.93-9.92 23.08-7.24 6.04-16.46 9.55-25.38 12.95l-98.51 37.49c-11.42 4.35-23.23 8.84-32.78 16.56-10.64 8.61-16.23 20.5-14.6 31.04.05.32.12.65.18.98h2.12c-.09-.43-.18-.87-.24-1.29-1.52-9.81 3.79-20.96 13.85-29.1 9.29-7.51 20.94-11.95 32.21-16.23l98.51-37.49c8.66-3.29 18.47-7.03 25.98-13.3 6.63-5.54 12.9-15.05 10.62-25.14-1.58-6.98-7.06-12.76-11.46-17.41-8.45-8.91-16.29-18.36-23.87-27.49-19.61-23.61-38.13-45.92-66.47-60.1-18.87-9.44-37.75-20.87-56-31.92-12.65-7.66-25.74-15.59-38.59-22.69-9.09-5.03-17.62-10.84-18.54-19.25-.49-4.49 1.34-8.75 3.28-13.25 1.35-3.14 2.75-6.39 3.33-9.78.47-2.73.4-5.49.32-8.16-.07-2.83-.15-5.5.37-8.15 1.85-9.51 10.48-15.69 20.73-19.25h-5.54c-8.67 3.97-15.54 10.09-17.24 18.85v.02ZM620.02 83.78c2 6.41 4.36 13.12 9.1 18.59 7.31 8.42 18.64 12.08 29.59 15.62 5.24 1.69 10.66 3.44 15.57 5.69 9.39 4.3 17.65 10.84 25.64 17.16 10.58 8.37 21.53 17.03 35.17 20.55 7.51 1.93 15.42 2.18 23.07 2.41 7.34.22 14.92.45 22.04 2.2 9.14 2.24 17.86 9.31 20.73 16.8 1.69 4.41 1.27 8.65-1.2 12.27-2.17 3.18-5.85 5.74-11.24 7.83-15.18 5.9-32.76 4.57-48.06 2.86l-3.96-.45c-15-1.72-30.52-3.49-45.32-.11-15 3.41-31.76 14.58-33.12 31.02-.67 8.08 2.51 15.76 5.59 23.19 1.12 2.7 2.28 5.5 3.22 8.25 3.22 9.38 3.59 22.42-5.93 28.26-5.24 3.22-11.68 3.22-18.44 3.21-3.4-.04-6.91 0-10.27.43-17.24 2.24-25.83 14.84-34.92 28.18-5.99 8.79-12.19 17.87-21.18 24.16-5.41 3.78-11.92 4.22-18.23 4.64-5.49.37-11.1.75-15.77 3.46h5.42c3.23-.89 6.81-1.13 10.48-1.37 6.59-.44 13.4-.89 19.29-5.01 9.3-6.51 15.61-15.76 21.71-24.7 8.82-12.94 17.15-25.16 33.46-27.28 3.23-.42 6.62-.44 10-.42 6.73.02 13.79 0 19.53-3.52 10.57-6.49 10.27-20.6 6.81-30.72-.97-2.81-2.13-5.64-3.27-8.37-2.99-7.2-6.07-14.65-5.44-22.22 1.28-15.4 17.22-25.91 31.51-29.16 14.46-3.29 29.8-1.55 44.62.15l3.97.45c15.53 1.73 33.42 3.07 49.05-2.99 5.79-2.25 9.78-5.07 12.2-8.6 2.88-4.21 3.37-9.11 1.43-14.19-3.15-8.22-12.26-15.65-22.18-18.08-7.33-1.8-15.03-2.03-22.48-2.26-7.53-.23-15.33-.46-22.61-2.34-13.22-3.41-23.51-11.55-34.4-20.16-8.09-6.4-16.45-13.01-26.06-17.42-5.02-2.3-10.5-4.07-15.8-5.78-11.17-3.61-21.72-7.02-28.66-15-4.48-5.16-6.75-11.65-8.69-17.85-8.48-27.1-12.85-55.02-13.04-83.16h-2.09c.19 28.35 4.6 56.47 13.14 83.78h.02ZM1171.67 59.29c-7.21-4.1-13.51-9.6-19.61-14.93-5.26-4.6-10.69-9.35-16.75-13.24-18.98-12.21-42.99-15.57-64.17-18.54L981.33 0h-15.08c2.13.29 4.25.59 6.36.88l98.23 13.76c20.97 2.94 44.74 6.27 63.33 18.23 5.93 3.81 11.31 8.51 16.51 13.06 6.17 5.39 12.56 10.97 19.95 15.17 7.08 4.02 15.03 6.75 22.72 9.38 2.31.79 4.64 1.59 6.95 2.43v-2.22c-2.09-.75-4.19-1.47-6.28-2.19-7.6-2.61-15.45-5.3-22.37-9.23l.02.02Z"></path><path d="M841.44 8.65c2.6 10.55 1.99 21.56-1.75 31.82-.69 1.88-1.48 3.77-2.27 5.65-2.76 6.56-5.61 13.34-4.36 20.56 1.28 7.4 7.08 14.4 15.9 19.19 5.78 3.14 12.17 5.14 18.36 7.07 1.77.55 3.54 1.11 5.3 1.68 22.48 7.42 43.22 19.6 59.98 35.2 1 .93 1.99 1.87 2.98 2.82 5.23 4.99 10.64 10.16 17.6 13.33 2.97 1.35 6.12 2.28 9.16 3.18 1.66.49 3.32.98 4.96 1.54 17.3 5.94 30.02 18.99 42.59 32.97 10.16 11.29 23.45 26.87 39.52 46.32 4.91 5.93 6.73 11.27 5.42 15.87-3.01 10.58-21.47 16.83-34.94 21.39-2.58.87-4.99 1.69-7.08 2.46-30.89 11.43-63 20.78-95.67 27.84-6.25 1.35-12.71 2.74-17.93 6.51-2 1.45-3.7 3.16-5.32 4.82-2 2.03-3.88 3.94-6.21 5.27-2.17 1.24-4.68 1.95-7.34 2.7-2.77.78-5.63 1.59-8.23 3.07-10.4 5.9-11.6 19.38-8.33 29.41 1.2 3.69 2.87 7.22 4.59 10.66h4.67c-1.96-3.88-3.96-7.88-5.29-11.95-2.77-8.47-1.94-19.74 6.42-24.48 2.16-1.23 4.66-1.93 7.3-2.68 2.79-.79 5.66-1.6 8.27-3.1 2.82-1.62 5-3.83 7.11-5.97 1.58-1.61 3.08-3.13 4.8-4.37 4.51-3.26 10.54-4.56 16.63-5.87 32.61-7.04 64.9-16.44 95.98-27.95 2.06-.76 4.43-1.56 6.97-2.42 14.35-4.86 34.01-11.51 37.62-24.2 1.71-6-.39-12.61-6.21-19.67-16.11-19.49-29.44-35.11-39.64-46.45-12.44-13.84-26.11-27.87-44.34-34.13-1.69-.58-3.41-1.09-5.13-1.6-3.03-.9-5.9-1.75-8.61-2.98-6.32-2.88-11.47-7.79-16.45-12.55-1-.96-2-1.91-3.01-2.85-17.19-16.01-38.47-28.5-61.52-36.11-1.78-.59-3.57-1.15-5.36-1.71-5.99-1.87-12.19-3.8-17.61-6.75-7.7-4.18-12.72-10.1-13.78-16.24-1.04-6.02 1.45-11.95 4.1-18.23.82-1.95 1.64-3.9 2.35-5.84 4.03-11.04 4.68-22.89 1.88-34.25l-.51-2.02c-.48-1.88-.96-3.78-1.32-5.63h-4.23c.39 2.29.96 4.55 1.5 6.66l.5 1.99-.02.02ZM1078.03.46c25.25 1.17 51.35 2.37 70.65 16.2 5.32 3.81 9.99 8.56 14.51 13.16 2.55 2.59 5.18 5.27 7.94 7.79 8.74 7.99 18.86 14.55 29.18 20.6v-4.85c-9.38-5.59-18.49-11.64-26.36-18.84-2.67-2.44-5.27-5.08-7.78-7.64-4.64-4.72-9.44-9.6-15.06-13.62-9.83-7.04-21.17-10.96-33.19-13.27h-49.26c3.1.17 6.23.32 9.38.46l-.01.01ZM635.19 47.36c2.31 2.84 4.49 5.52 5.49 7.78 2.42 5.45.38 8.89-2.2 13.25-2.35 3.97-5.01 8.47-4.4 14.98 1.03 10.94 10.79 20.93 26.12 26.71 4.69 1.77 9.59 3.16 14.34 4.5 7.37 2.08 15 4.24 21.63 7.82 6.65 3.6 12.67 8.79 18.48 13.8 9.92 8.56 20.18 17.41 33.98 18.71 6.05.58 12.19-.44 18.11-1.42 8.09-1.34 15.73-2.61 22.71.05 5.46 2.08 9.64 6.3 14.16 11.2 8.41 9.13 15.62 17.52 18.61 27.66 2.7 9.15 1.04 21.76-8.97 27.84-7.66 4.65-17.79 4.14-28.37 3.15l-65.02-6.1c-13.08-1.22-27.83-1.81-37.37 6.82-12.49 11.28-7.73 29.56-1.42 45.96 4.35 11.3 9.58 31.52-4.24 40.06-6.64 4.1-14.91 3.66-23.67 3.19-6.01-.32-12.23-.65-18.13.54-16.17 3.24-25.54 16.2-34.6 28.73-4.4 6.08-8.89 12.28-14.18 17.43h5.82c4.28-4.67 8.04-9.87 11.74-14.99 8.98-12.43 17.47-24.17 32.04-27.08 5.39-1.08 11.34-.76 17.09-.46 9.02.47 18.34.97 26.09-3.81 16.38-10.11 10.76-32.6 5.94-45.1-5.8-15.07-10.3-31.78.32-41.36 8.3-7.49 22-6.91 34.19-5.76l65.02 6.1c11.31 1.06 22.18 1.57 30.93-3.74 11.9-7.22 13.94-21.95 10.8-32.58-3.23-10.99-11.09-20.14-19.53-29.31-4.88-5.3-9.44-9.88-15.75-12.27-8.03-3.06-16.6-1.64-24.88-.27-5.65.94-11.5 1.91-17.03 1.39-12.48-1.18-21.79-9.21-31.65-17.71-5.98-5.16-12.17-10.5-19.23-14.31-7.04-3.8-14.89-6.02-22.48-8.17-4.66-1.32-9.48-2.68-14-4.38-5.17-1.95-22.14-9.38-23.44-23.19-.49-5.17 1.61-8.71 3.83-12.46 2.81-4.74 5.72-9.65 2.42-17.07-1.23-2.77-3.58-5.66-6.07-8.72-6.21-7.64-13.25-16.31-7.22-27.08 4.4-7.86 6.6-13.36 7.88-17.65h-4.38c-1.26 3.89-3.34 8.81-7.15 15.61-7.41 13.24 1.28 23.93 7.63 31.74l.01-.03ZM1171.05 11.98a1.044 1.044 0 0 0 1.47.07c.43-.39.46-1.04.07-1.47l-2.81-3.09c-.38-.43-1.04-.45-1.47-.07-.42.39-.45 1.05-.07 1.47l2.8 3.09h.01ZM1163.29 3.16c.26 0 .53-.1.73-.3.41-.4.42-1.06.02-1.48-.46-.47-.93-.92-1.4-1.38h-2.97c.97.93 1.93 1.88 2.88 2.84.2.21.48.31.75.31l-.01.01ZM1196.59 33.4a1.04 1.04 0 0 0-1.46.2c-.35.46-.26 1.11.2 1.46 1.11.84 2.23 1.67 3.37 2.5a1.033 1.033 0 0 0 1.45-.23c.08-.1.12-.22.15-.34v-.53c-.06-.23-.18-.44-.39-.59-1.12-.82-2.23-1.64-3.33-2.47h.01ZM1179.58 21.2c.2.21.47.32.75.32s.53-.1.73-.3c.41-.4.42-1.06.02-1.48-.96-.99-1.91-2-2.86-3.01-.38-.42-1.04-.45-1.47-.05-.42.39-.45 1.05-.05 1.47.95 1.03 1.91 2.04 2.89 3.04l-.01.01ZM1188.78 29.81a1.041 1.041 0 0 0 1.47-.12c.38-.44.32-1.1-.12-1.47-1.06-.9-2.09-1.8-3.12-2.73-.42-.38-1.08-.35-1.48.08-.39.43-.35 1.09.07 1.47 1.04.94 2.09 1.86 3.17 2.77h.01ZM1200.31 12.05V9c-1.08-1.14-2.17-2.28-3.22-3.44-1.63-1.82-3.25-3.68-4.86-5.56h-2.75c2.01 2.35 4.03 4.69 6.07 6.96 1.56 1.73 3.15 3.43 4.77 5.1l-.01-.01Z"></path></g></svg> 